<svg width="431" height="440" viewBox="0 0 431 440" fill="none" xmlns="http://www.w3.org/2000/svg">
<g clip-path="url(#clip0_203_3949)">
<g opacity="0.4">
<path d="M-50.1723 470.959C-50.1723 470.959 8.47246 419.734 45.2513 384.78C82.0301 349.826 139.726 336.33 222.234 347.21C304.742 358.09 277.398 244.884 312.777 257.928C348.156 270.971 232.557 345.917 276.884 251.129C321.21 156.342 372.318 159.119 418.385 137.225C464.452 115.33 347.923 108.934 347.923 108.934" stroke="#F8FFA0" stroke-width="0.716307"/>
<path d="M-61.6882 249.355C-52.8131 154.666 69.7642 246.005 117.998 182.543C166.232 119.081 102.274 110.186 62.7625 134.082C23.251 157.977 29.0698 214.043 64.449 227.087C99.8282 240.131 173.122 265.137 217.448 170.349C261.774 75.5617 163.97 66.6452 244.222 12.9723C308.423 -29.9661 259.197 -84.4935 237.616 -74.3756" stroke="#4F5509" stroke-width="0.716307"/>
<path d="M-61.0266 259.471C-52.5742 169.291 66.9588 253.841 114.647 191.737C162.336 129.632 104.171 120.518 70.4696 143.794C36.7685 167.07 41.0081 215.075 76.3874 228.119C111.767 241.162 176.065 268.547 220.391 173.759C264.718 78.9715 174.005 70.6119 252.629 18.4522C315.967 -23.4841 263.536 -75.7195 242.982 -66.0834" stroke="#575D10" stroke-width="0.716307"/>
<path d="M-60.3646 269.59C-52.3348 183.92 64.1537 261.681 111.297 200.934C158.44 140.187 106.068 130.854 78.1771 153.51C50.2865 176.166 52.9469 216.111 88.3261 229.154C123.705 242.198 179.009 271.961 223.335 177.173C267.662 82.3853 184.039 74.5826 261.036 23.9362C323.51 -16.998 267.874 -66.9415 248.348 -57.7872" stroke="#5F6517" stroke-width="0.716307"/>
<path d="M-59.7034 279.715C-52.0962 198.553 61.3479 269.526 107.945 210.136C154.543 150.747 107.964 141.195 85.8837 163.231C63.8036 185.267 64.8849 217.151 100.264 230.195C135.643 243.239 181.952 275.38 226.278 180.592C270.605 85.804 194.074 78.5582 269.442 29.425C331.053 -10.5071 272.212 -58.1587 253.714 -49.4862" stroke="#676D1E" stroke-width="0.716307"/>
<path d="M-59.0443 289.846C-51.8597 213.193 58.54 277.377 104.592 219.345C150.644 161.313 109.858 151.542 93.5884 172.958C77.3187 194.375 76.8208 218.198 112.2 231.242C147.579 244.286 184.893 278.804 229.22 184.017C273.546 89.2288 204.106 82.5398 277.846 34.9199C338.593 -4.01014 276.548 -49.3697 259.077 -41.179" stroke="#6F7525" stroke-width="0.716307"/>
<path d="M-58.3856 299.984C-51.6237 227.84 55.7317 285.235 101.238 228.561C146.745 171.887 111.752 161.896 101.293 182.693C90.8334 203.489 88.7563 219.253 124.135 232.296C159.515 245.34 187.834 282.237 232.16 187.449C276.486 92.6612 214.137 86.5291 286.25 40.4224C346.134 2.49449 280.883 -40.5731 264.44 -32.8643" stroke="#777D2D" stroke-width="0.716307"/>
<path d="M-57.7299 310.132C-51.3906 242.497 52.9203 293.103 97.8815 237.787C142.843 182.47 113.643 172.26 108.994 192.437C104.345 212.614 100.689 220.317 136.068 233.36C171.447 246.404 190.771 285.679 235.098 190.891C279.424 96.1034 224.166 90.5281 294.651 45.9347C353.671 9.00881 285.216 -31.7669 269.8 -24.5398" stroke="#7F8534" stroke-width="0.716307"/>
<path d="M-57.0759 320.293C-51.1592 257.167 50.1073 300.984 94.5229 247.025C138.939 193.066 115.531 182.637 116.693 202.194C117.855 221.751 112.619 221.393 147.999 234.437C183.378 247.481 193.707 289.134 238.034 194.346C282.36 99.5581 234.193 94.5397 303.05 51.4596C361.206 15.5358 289.546 -22.948 275.158 -16.2027" stroke="#878E3B" stroke-width="0.716307"/>
<path d="M-56.4268 330.47C-50.9327 271.853 47.2894 308.882 91.1595 256.28C135.03 203.678 117.416 193.031 124.388 211.968C131.36 230.905 124.545 222.487 159.925 235.53C195.304 248.574 196.638 292.605 240.965 197.817C285.291 103.03 244.215 98.568 311.444 57.0011C368.737 22.0794 293.872 -14.1124 280.512 -7.84894" stroke="#8F9642" stroke-width="0.716307"/>
<path d="M-55.7831 340.67C-50.7116 286.562 44.466 316.802 87.7907 265.558C131.115 214.313 119.294 203.447 132.077 221.764C144.86 240.082 136.466 223.602 171.845 236.646C207.224 249.69 199.564 296.099 243.89 201.311C288.216 106.523 254.232 102.619 319.833 62.565C376.262 28.6454 298.192 -5.25441 285.86 0.527241" stroke="#979E4A" stroke-width="0.716307"/>
<path d="M-55.1462 350.9C-50.4974 301.302 41.6359 324.752 84.4151 274.866C127.194 224.979 121.166 213.893 139.759 231.591C158.353 249.289 148.38 224.749 183.759 237.793C219.138 250.836 202.483 299.623 246.809 204.836C291.135 110.048 264.242 106.7 328.215 68.1597C383.781 35.2421 302.506 3.63426 291.201 8.93411" stroke="#9FA651" stroke-width="0.716307"/>
<path d="M-54.5215 361.173C-50.2953 316.084 38.7936 332.746 81.0273 284.216C123.261 235.687 123.026 224.383 147.43 241.46C171.833 258.538 160.281 225.938 195.66 238.982C231.039 252.025 205.389 303.19 249.716 208.403C294.042 113.615 274.239 110.824 336.585 73.7968C391.287 41.8814 306.807 12.5655 296.53 17.3835" stroke="#A7AE58" stroke-width="0.716307"/>
<path d="M-53.9118 371.506C-50.1082 330.925 35.9362 340.798 77.6244 293.626C119.313 246.455 124.871 234.931 155.085 251.389C185.299 267.847 172.167 227.186 207.547 240.23C242.926 253.273 208.281 306.817 252.607 212.029C296.933 117.241 284.222 115.007 344.939 79.4933C398.778 48.5799 311.093 21.5559 301.844 25.8922" stroke="#AFB65F" stroke-width="0.716307"/>
<path d="M-53.3248 381.919C-49.9438 345.848 33.0562 348.932 74.199 303.118C115.342 257.304 126.693 245.561 162.717 261.399C198.742 277.238 184.031 228.516 219.411 241.56C254.79 254.603 211.15 310.525 255.476 215.737C299.802 120.949 294.182 119.272 353.272 85.2713C406.247 55.36 315.357 30.628 307.136 34.4825" stroke="#B7BE66" stroke-width="0.716307"/>
<path d="M-52.7694 392.443C-49.811 360.88 30.1446 357.175 70.7419 312.719C111.339 268.262 128.483 256.3 170.318 271.519C212.153 286.737 195.863 229.955 231.243 242.999C266.622 256.042 213.987 314.342 258.313 219.554C302.64 124.766 304.11 123.646 361.572 91.1586C413.684 62.2494 319.589 39.8094 312.395 43.182" stroke="#BFC66E" stroke-width="0.716307"/>
<path d="M-52.2531 403.105C-49.7174 376.051 27.1938 365.558 67.2456 322.459C107.297 279.36 130.235 267.179 177.88 281.777C225.525 296.376 207.656 231.533 243.036 244.577C278.415 257.621 216.785 318.298 261.111 223.51C305.438 128.723 313.999 128.159 369.833 97.185C421.081 69.2778 323.782 49.1298 317.616 52.0206" stroke="#C7CE75" stroke-width="0.716307"/>
<path d="M-51.7835 413.933C-49.6704 391.388 24.1964 374.106 63.7026 332.365C103.209 290.623 131.939 278.223 185.395 292.202C238.851 306.181 219.403 233.278 254.782 246.321C290.161 259.365 219.537 322.42 263.863 227.633C308.189 132.845 323.842 132.838 378.048 103.377C428.433 76.4724 327.928 58.6163 322.79 61.0253" stroke="#D0D67C" stroke-width="0.716307"/>
<path d="M-51.3643 424.947C-49.6738 406.911 21.1486 382.841 60.1094 342.457C99.0702 302.073 133.593 289.453 192.86 302.813C252.126 316.172 231.099 235.208 266.478 248.251C301.857 261.295 222.238 326.729 266.564 231.941C310.89 137.153 333.634 137.704 386.212 109.756C435.733 83.8529 332.024 68.2887 327.913 70.2159" stroke="#D8DE83" stroke-width="0.716307"/>
<path d="M-50.9975 436.158C-49.7297 422.631 18.0483 391.771 56.4636 352.745C94.8789 313.718 135.195 300.88 200.272 313.619C265.349 326.359 242.742 237.334 278.122 250.378C313.501 263.422 224.887 331.233 269.213 236.446C313.539 141.658 343.374 142.765 394.324 116.331C442.982 91.4297 336.068 78.1575 332.984 79.6029" stroke="#E0E68B" stroke-width="0.716307"/>
<path d="M-50.6818 447.567C-49.8365 438.549 14.897 400.901 52.7668 363.232C90.6367 325.563 136.746 312.505 207.633 324.625C278.521 336.744 254.335 239.659 289.714 252.703C325.093 265.747 227.484 335.936 271.81 241.149C316.137 146.361 353.063 148.025 402.385 123.104C450.179 99.2049 340.06 88.2246 338.005 89.1882" stroke="#E8EF92" stroke-width="0.716307"/>
<path d="M-50.4092 459.17C-49.9866 454.661 11.7026 410.224 49.0269 373.912C86.3512 337.601 138.254 324.325 214.951 335.824C291.649 347.324 265.884 242.178 301.263 255.222C336.643 268.266 230.039 340.833 274.365 246.046C318.691 151.258 362.708 153.479 410.403 130.071C457.333 107.174 344.009 98.4859 342.981 98.9677" stroke="#F0F799" stroke-width="0.716307"/>
</g>
</g>
<defs>
<clipPath id="clip0_203_3949">
<rect width="435" height="439.377" fill="white" transform="translate(-4)"/>
</clipPath>
</defs>
</svg>
