<svg width="24" height="24" viewBox="0 0 24 24" fill="none" xmlns="http://www.w3.org/2000/svg">
<path d="M18.5901 5.88991C17.3601 5.31991 16.0501 4.89991 14.6701 4.65991C14.5001 4.95991 14.3001 5.36991 14.1701 5.69991C12.7101 5.47991 11.2601 5.47991 9.83007 5.69991C9.69007 5.36991 9.49007 4.95991 9.32007 4.65991C7.94007 4.89991 6.63007 5.31991 5.40007 5.88991C2.92007 9.62991 2.25007 13.2799 2.58007 16.8699C4.23007 18.0999 5.82007 18.8399 7.39007 19.3299C7.78007 18.7999 8.12007 18.2299 8.42007 17.6399C7.85007 17.4299 7.31007 17.1599 6.80007 16.8499C6.94007 16.7499 7.07007 16.6399 7.20007 16.5399C10.3301 17.9999 13.7201 17.9999 16.8101 16.5399C16.9401 16.6499 17.0701 16.7499 17.2101 16.8499C16.7001 17.1599 16.1501 17.4199 15.5901 17.6399C15.8901 18.2299 16.2301 18.7999 16.6201 19.3299C18.1901 18.8399 19.7901 18.0999 21.4301 16.8699C21.8201 12.6999 20.7601 9.08991 18.6101 5.88991H18.5901ZM8.84007 14.6699C7.90007 14.6699 7.13007 13.7999 7.13007 12.7299C7.13007 11.6599 7.88007 10.7899 8.84007 10.7899C9.80007 10.7899 10.5601 11.6599 10.5501 12.7299C10.5501 13.7899 9.80007 14.6699 8.84007 14.6699ZM15.1501 14.6699C14.2101 14.6699 13.4401 13.7999 13.4401 12.7299C13.4401 11.6599 14.1901 10.7899 15.1501 10.7899C16.1101 10.7899 16.8701 11.6599 16.8601 12.7299C16.8601 13.7899 16.1101 14.6699 15.1501 14.6699Z" fill="white"/>
</svg>
