<svg width="20" height="21" viewBox="0 0 20 21" fill="none" xmlns="http://www.w3.org/2000/svg">
<path d="M9.75724 1.78864C7.43724 1.79106 5.21295 2.71375 3.57244 4.35424C1.93195 5.99472 1.00926 8.21904 1.00684 10.539C1.00974 12.8585 1.93273 15.0821 3.57323 16.7218C5.21374 18.3615 7.43779 19.2834 9.75724 19.2852C12.0764 19.2827 14.2999 18.3604 15.9399 16.7204C17.5798 15.0805 18.5021 12.857 18.5046 10.5378C18.5018 8.21855 17.5794 5.99503 15.9396 4.35489C14.2998 2.71475 12.0765 1.79186 9.75724 1.78864ZM12.8429 13.3336L10.0991 15.1618L10.096 15.1648C9.99616 15.2329 9.87807 15.269 9.75724 15.2686C9.63634 15.2695 9.5181 15.2332 9.41845 15.1648L9.36657 15.1282L6.67155 13.3336C6.53689 13.244 6.44326 13.1047 6.41121 12.9462C6.37916 12.7877 6.41133 12.6229 6.50063 12.4881C6.59085 12.3534 6.73067 12.2598 6.88966 12.2277C7.04861 12.1957 7.21379 12.2279 7.34912 12.3172L9.14681 13.5167V6.41747C9.14654 6.33723 9.16214 6.25772 9.19272 6.18353C9.22327 6.10933 9.26823 6.04194 9.32497 5.9852C9.3817 5.92846 9.44913 5.8835 9.52329 5.85292C9.59749 5.82237 9.677 5.80677 9.75724 5.80705C9.91912 5.80705 10.0744 5.87136 10.1889 5.98584C10.3034 6.1003 10.3677 6.25556 10.3677 6.41747V13.5167L12.1654 12.3172C12.3002 12.2279 12.4649 12.1957 12.6234 12.2278C12.7819 12.2598 12.9212 12.3535 13.0108 12.4881C13.1004 12.6226 13.133 12.787 13.1016 12.9455C13.0701 13.104 12.9771 13.2435 12.8429 13.3336Z" fill="#CFFF55"/>
</svg>
