<svg width="28" height="28" viewBox="0 0 28 28" fill="none" xmlns="http://www.w3.org/2000/svg">
<rect x="27.7783" y="27.6895" width="27.0444" height="27.0444" rx="13.5222" transform="rotate(180 27.7783 27.6895)" fill="#1A1D22"/>
<path d="M8.63032 18.9481C8.63032 19.4148 9.0087 19.7932 9.47545 19.7932L17.0817 19.7932C17.5485 19.7932 17.9268 19.4148 17.9268 18.9481C17.9268 18.4813 17.5485 18.1029 17.0817 18.1029L10.3206 18.1029L10.3206 11.3418C10.3206 10.8751 9.94221 10.4967 9.47545 10.4967C9.0087 10.4967 8.63032 10.8751 8.63032 11.3418L8.63032 18.9481ZM18.4395 8.78881L8.87785 18.3505L10.0731 19.5457L19.6347 9.98402L18.4395 8.78881Z" fill="white"/>
</svg>
