<svg width="20" height="21" viewBox="0 0 20 21" fill="none" xmlns="http://www.w3.org/2000/svg">
<path d="M9.75736 1.78864C7.43736 1.79107 5.21307 2.71376 3.57256 4.35425C1.93207 5.99473 1.00938 8.21905 1.00696 10.539C1.00987 12.8585 1.93285 15.0821 3.57336 16.7218C5.21386 18.3615 7.43791 19.2834 9.75736 19.2852C12.0766 19.2827 14.3001 18.3604 15.94 16.7205C17.5799 15.0805 18.5023 12.857 18.5047 10.5378C18.502 8.21856 17.5796 5.99504 15.9397 4.35489C14.2999 2.71475 12.0766 1.79187 9.75736 1.78864ZM12.843 13.3336L10.0992 15.1618L10.0961 15.1648C9.99628 15.2329 9.87819 15.269 9.75736 15.2686C9.63646 15.2695 9.51823 15.2333 9.41857 15.1648L9.36669 15.1282L6.67167 13.3336C6.53702 13.244 6.44338 13.1047 6.41133 12.9462C6.37928 12.7877 6.41145 12.6229 6.50076 12.4881C6.59098 12.3534 6.73079 12.2598 6.88978 12.2277C7.04873 12.1957 7.21391 12.2279 7.34924 12.3172L9.14694 13.5167V6.41748C9.14666 6.33724 9.16226 6.25773 9.19284 6.18353C9.22339 6.10934 9.26835 6.04195 9.32509 5.98521C9.38183 5.92847 9.44925 5.88351 9.52341 5.85293C9.59761 5.82238 9.67712 5.80678 9.75736 5.80706C9.91924 5.80706 10.0745 5.87137 10.189 5.98585C10.3035 6.1003 10.3678 6.25556 10.3678 6.41748V13.5167L12.1655 12.3172C12.3003 12.2279 12.465 12.1957 12.6235 12.2278C12.7821 12.2598 12.9214 12.3535 13.0109 12.4881C13.1005 12.6226 13.1331 12.787 13.1017 12.9455C13.0702 13.104 12.9772 13.2435 12.843 13.3336Z" fill="#BCACFF"/>
</svg>
