<svg width="19" height="19" viewBox="0 0 19 19" fill="none" xmlns="http://www.w3.org/2000/svg">
<g clip-path="url(#clip0_135_218)">
<path d="M17.9313 8.74803C17.1 7.71887 14.0125 4.35428 9.50002 4.35428C8.99623 4.35289 8.49317 4.39261 7.99585 4.47303L15.7938 12.3105C16.5893 11.7162 17.3073 11.0247 17.9313 10.2522C18.1049 10.04 18.1998 9.77429 18.1998 9.50012C18.1998 9.22594 18.1049 8.96021 17.9313 8.74803Z" fill="white"/>
<path d="M16.2688 15.1605L11.6376 10.5292C11.4478 10.9349 11.1454 11.2775 10.7665 11.5161C10.3875 11.7547 9.94788 11.8793 9.50006 11.8751C8.87017 11.8751 8.26608 11.6249 7.82068 11.1795C7.37528 10.7341 7.12506 10.13 7.12506 9.50008C7.12083 9.05226 7.24545 8.61266 7.48407 8.23369C7.72268 7.85471 8.06523 7.55233 8.47089 7.36258L3.83964 2.73133C3.68719 2.61699 3.49861 2.56148 3.30852 2.57499C3.11844 2.5885 2.9396 2.67012 2.80485 2.80487C2.6701 2.93962 2.58848 3.11846 2.57497 3.30855C2.56146 3.49863 2.61697 3.68721 2.73131 3.83967L4.63131 5.73967C3.26467 6.50873 2.0559 7.52946 1.06881 8.748C0.895167 8.96018 0.800293 9.22591 0.800293 9.50008C0.800293 9.77426 0.895167 10.04 1.06881 10.2522C1.90006 11.2813 4.98756 14.6459 9.50006 14.6459C10.6497 14.6303 11.788 14.416 12.8646 14.0126L15.1605 16.2688C15.2285 16.3596 15.3153 16.4346 15.4149 16.4889C15.5145 16.5432 15.6246 16.5755 15.7377 16.5835C15.8508 16.5915 15.9644 16.5752 16.0706 16.5355C16.1769 16.4959 16.2734 16.4338 16.3536 16.3536C16.4338 16.2734 16.4958 16.1769 16.5355 16.0707C16.5752 15.9644 16.5915 15.8508 16.5835 15.7377C16.5754 15.6246 16.5432 15.5145 16.4889 15.4149C16.4346 15.3153 16.3596 15.2286 16.2688 15.1605Z" fill="white"/>
</g>
<defs>
<clipPath id="clip0_135_218">
<rect width="19" height="19" fill="white"/>
</clipPath>
</defs>
</svg>
