<svg width="14" height="15" viewBox="0 0 14 15" fill="none" xmlns="http://www.w3.org/2000/svg">
<g clip-path="url(#clip0_447_17407)">
<path d="M12.7735 1.72594C11.0632 0.017498 8.35286 -0.0453927 5.87525 2.42949C3.72575 4.57652 4.20782 4.09527 3.53052 4.77176C1.87732 6.42304 1.60579 8.89601 1.79036 10.5459L6.66958 5.67191C6.84075 5.50101 7.11802 5.50101 7.28892 5.67191C7.45982 5.84281 7.45982 6.1198 7.28892 6.2907L0.192668 13.3796C-0.0638159 13.6358 -0.0638159 14.0514 0.192668 14.3076C0.449153 14.5638 0.865325 14.5638 1.12181 14.3076L2.92923 12.5021C4.35931 12.9317 7.62907 12.9989 9.67849 10.9998H6.99361L11.0287 9.65617C12.3956 8.2909 12.0235 8.66687 12.295 8.37484H9.62134L13.2181 7.17719C14.4606 5.14117 14.1563 3.10734 12.7735 1.72594Z" fill="url(#paint0_linear_447_17407)"/>
</g>
<defs>
<linearGradient id="paint0_linear_447_17407" x1="-1.29598" y1="5.95056" x2="11.2698" y2="12.6336" gradientUnits="userSpaceOnUse">
<stop stop-color="#EBA6FF"/>
<stop offset="0.731815" stop-color="#60B7FF"/>
</linearGradient>
<clipPath id="clip0_447_17407">
<rect width="14" height="14" fill="white" transform="translate(0 0.5)"/>
</clipPath>
</defs>
</svg>
