<svg width="14" height="15" viewBox="0 0 14 15" fill="none" xmlns="http://www.w3.org/2000/svg">
<g clip-path="url(#clip0_2010_368)">
<path d="M12.7735 1.72591C11.0631 0.0174742 8.3528 -0.0454165 5.87519 2.42947C3.72569 4.5765 4.20776 4.09525 3.53046 4.77173C1.87726 6.42302 1.60573 8.89599 1.7903 10.5459L6.66952 5.67189C6.84069 5.50099 7.11796 5.50099 7.28886 5.67189C7.45976 5.84279 7.45976 6.11978 7.28886 6.29068L0.192607 13.3795C-0.063877 13.6358 -0.063877 14.0514 0.192607 14.3076C0.449092 14.5638 0.865264 14.5638 1.12175 14.3076L2.92917 12.5021C4.35925 12.9317 7.62901 12.9989 9.67843 10.9998H6.99354L11.0287 9.65615C12.3956 8.29087 12.0234 8.66685 12.295 8.37482H9.62128L13.2181 7.17716C14.4606 5.14115 14.1562 3.10732 12.7735 1.72591Z" fill="#CFFF55"/>
</g>
<defs>
<clipPath id="clip0_2010_368">
<rect width="14" height="14" fill="white" transform="translate(0 0.5)"/>
</clipPath>
</defs>
</svg>
