<svg width="15" height="15" viewBox="0 0 15 15" fill="none" xmlns="http://www.w3.org/2000/svg">
<path fill-rule="evenodd" clip-rule="evenodd" d="M8.92425 1.34515C8.69281 1.25 8.39937 1.25 7.8125 1.25C7.22562 1.25 6.93219 1.25 6.70075 1.34515C6.39212 1.47202 6.14693 1.71536 6.0191 2.02164C5.96074 2.16146 5.9379 2.32406 5.92897 2.56124C5.91584 2.9098 5.73572 3.23243 5.43135 3.40683C5.12699 3.58123 4.7554 3.57471 4.44468 3.41172C4.23324 3.30081 4.07993 3.23914 3.92874 3.21939C3.59756 3.17611 3.26261 3.26518 2.9976 3.467C2.79884 3.61836 2.65212 3.87056 2.35869 4.37496C2.06525 4.87936 1.91854 5.13155 1.88584 5.37807C1.84224 5.70675 1.93199 6.03916 2.13534 6.30219C2.22816 6.42225 2.3586 6.52312 2.56106 6.64937C2.85869 6.835 3.0502 7.15119 3.05018 7.5C3.05016 7.84881 2.85866 8.16494 2.56106 8.3505C2.35857 8.47681 2.2281 8.57775 2.13528 8.69781C1.93192 8.96081 1.84218 9.29319 1.88578 9.62188C1.91848 9.86838 2.0652 10.1206 2.35862 10.625C2.65205 11.1294 2.79877 11.3816 2.99754 11.5329C3.26255 11.7347 3.59749 11.8238 3.92868 11.7806C4.07986 11.7608 4.23315 11.6991 4.44458 11.5883C4.75532 11.4253 5.12694 11.4187 5.43132 11.5931C5.73571 11.7676 5.91583 12.0902 5.92897 12.4388C5.9379 12.6759 5.96074 12.8386 6.0191 12.9784C6.14693 13.2846 6.39212 13.528 6.70075 13.6549C6.93219 13.75 7.22562 13.75 7.8125 13.75C8.39937 13.75 8.69281 13.75 8.92425 13.6549C9.23287 13.528 9.47806 13.2846 9.60587 12.9784C9.66425 12.8386 9.68712 12.6759 9.69606 12.4388C9.70919 12.0902 9.88925 11.7676 10.1936 11.5931C10.498 11.4187 10.8696 11.4253 11.1804 11.5883C11.3918 11.6991 11.5451 11.7608 11.6962 11.7805C12.0274 11.8238 12.3624 11.7347 12.6274 11.5329C12.8262 11.3816 12.9729 11.1294 13.2663 10.6249C13.5597 10.1206 13.7064 9.86838 13.7392 9.62188C13.7827 9.29319 13.693 8.96075 13.4897 8.69775C13.3968 8.57769 13.2664 8.47675 13.0639 8.3505C12.7663 8.16494 12.5748 7.84875 12.5748 7.49994C12.5748 7.15112 12.7663 6.83506 13.0639 6.6495C13.2664 6.52319 13.3969 6.42231 13.4897 6.30219C13.6931 6.03921 13.7828 5.70679 13.7392 5.37811C13.7065 5.13159 13.5598 4.87939 13.2664 4.375C12.9729 3.87061 12.8262 3.61841 12.6274 3.46704C12.3624 3.26522 12.0275 3.17616 11.6963 3.21943C11.5451 3.23918 11.3918 3.30085 11.1804 3.41175C10.8697 3.57474 10.4981 3.58126 10.1937 3.40685C9.88931 3.23244 9.70919 2.90979 9.696 2.56121C9.68706 2.32405 9.66425 2.16146 9.60587 2.02164C9.47806 1.71536 9.23287 1.47202 8.92425 1.34515ZM7.8125 9.375C8.85594 9.375 9.70175 8.53556 9.70175 7.5C9.70175 6.46444 8.85594 5.625 7.8125 5.625C6.76906 5.625 5.92322 6.46444 5.92322 7.5C5.92322 8.53556 6.76906 9.375 7.8125 9.375Z" fill="#CFFF55"/>
</svg>
