<svg width="24" height="24" viewBox="0 0 24 24" fill="none" xmlns="http://www.w3.org/2000/svg">
<g clip-path="url(#clip0_2001_601)">
<path d="M16.5915 7.53005C16.596 7.53005 16.602 7.53005 16.608 7.53005C16.7647 7.53005 16.9102 7.5788 17.0295 7.6628L17.0272 7.6613C17.1142 7.73705 17.1727 7.84355 17.187 7.96355V7.9658C17.202 8.0573 17.2102 8.1623 17.2102 8.26955C17.2102 8.3183 17.2087 8.3663 17.205 8.4143V8.40755C17.0362 10.1843 16.3042 14.493 15.9322 16.482C15.7747 17.3243 15.465 17.6063 15.165 17.6333C14.5132 17.694 14.0182 17.2028 13.3867 16.7888C12.3982 16.14 11.8395 15.7365 10.8802 15.1043C9.77096 14.3745 10.4902 13.9718 11.1217 13.3163C11.2875 13.1438 14.1607 10.53 14.217 10.293C14.22 10.2788 14.2215 10.263 14.2215 10.2465C14.2215 10.188 14.1997 10.1348 14.1645 10.0943C14.1255 10.0688 14.0767 10.0545 14.0257 10.0545C13.992 10.0545 13.9597 10.0613 13.9297 10.0725L13.9312 10.0718C13.8322 10.0943 12.2532 11.1378 9.19421 13.2023C8.86046 13.4655 8.43896 13.632 7.97996 13.6515H7.97546C7.32521 13.5728 6.73496 13.428 6.17471 13.2218L6.23021 13.2398C5.52671 13.0103 4.96796 12.8895 5.01596 12.501C5.04146 12.299 5.31996 12.0923 5.85146 11.8808C9.12546 10.4543 11.3087 9.51405 12.4012 9.06005C13.6065 8.4203 15.0037 7.8938 16.473 7.55255L16.5907 7.5293L16.5915 7.53005ZM11.9475 0.768799C5.72096 0.783799 0.678711 5.83505 0.678711 12.0638C0.678711 18.3015 5.73521 23.3588 11.9737 23.3588C18.2122 23.3588 23.2687 18.3023 23.2687 12.0638C23.2687 5.83505 18.2265 0.783799 12.0015 0.768799H12C11.9825 0.768799 11.965 0.768799 11.9475 0.768799Z" fill="white"/>
</g>
<defs>
<clipPath id="clip0_2001_601">
<rect width="24" height="24" fill="white"/>
</clipPath>
</defs>
</svg>
