<svg width="42" height="42" viewBox="0 0 42 42" fill="none" xmlns="http://www.w3.org/2000/svg">
<path d="M16.89 6.22276L21.1128 2M12.6673 29.448L29.5583 12.5569M21.1128 40.0049L25.3355 35.7821M30.614 35.7821C32.0139 35.7821 33.3565 35.226 34.3464 34.2361C35.3363 33.2462 35.8924 31.9036 35.8924 30.5036C35.8924 29.1037 35.3363 27.7611 34.3464 26.7712C33.3565 25.7813 32.0139 25.2252 30.614 25.2252C29.2141 25.2252 27.8715 25.7813 26.8816 26.7712C25.8917 27.7611 25.3355 29.1037 25.3355 30.5036C25.3355 31.9036 25.8917 33.2462 26.8816 34.2361C27.8715 35.226 29.2141 35.7821 30.614 35.7821ZM11.6116 16.7797C13.0115 16.7797 14.3541 16.2235 15.344 15.2336C16.3339 14.2437 16.89 12.9011 16.89 11.5012C16.89 10.1013 16.3339 8.75869 15.344 7.76878C14.3541 6.77888 13.0115 6.22276 11.6116 6.22276C10.2116 6.22276 8.86904 6.77888 7.87914 7.76878C6.88923 8.75869 6.33311 10.1013 6.33311 11.5012C6.33311 12.9011 6.88923 14.2437 7.87914 15.2336C8.86904 16.2235 10.2116 16.7797 11.6116 16.7797ZM7.3888 40.0049C8.78874 40.0049 10.1313 39.4487 11.1212 38.4588C12.1111 37.4689 12.6673 36.1263 12.6673 34.7264C12.6673 33.3265 12.1111 31.9839 11.1212 30.994C10.1313 30.0041 8.78874 29.448 7.3888 29.448C5.98887 29.448 4.64628 30.0041 3.65637 30.994C2.66647 31.9839 2.11035 33.3265 2.11035 34.7264C2.11035 36.1263 2.66647 37.4689 3.65637 38.4588C4.64628 39.4487 5.98887 40.0049 7.3888 40.0049ZM34.8368 12.5569C36.2367 12.5569 37.5793 12.0008 38.5692 11.0109C39.5591 10.021 40.1152 8.67839 40.1152 7.27845C40.1152 5.87852 39.5591 4.53592 38.5692 3.54602C37.5793 2.55612 36.2367 2 34.8368 2C33.4368 2 32.0942 2.55612 31.1043 3.54602C30.1144 4.53592 29.5583 5.87852 29.5583 7.27845C29.5583 8.67839 30.1144 10.021 31.1043 11.0109C32.0942 12.0008 33.4368 12.5569 34.8368 12.5569Z" stroke="url(#paint0_linear_447_19580)" stroke-width="3.30783" stroke-linecap="round" stroke-linejoin="round"/>
<defs>
<linearGradient id="paint0_linear_447_19580" x1="-1.40862" y1="16.797" x2="32.7029" y2="34.9392" gradientUnits="userSpaceOnUse">
<stop stop-color="#EBA6FF"/>
<stop offset="0.731815" stop-color="#60B7FF"/>
</linearGradient>
</defs>
</svg>
