<svg width="42" height="42" viewBox="0 0 42 42" fill="none" xmlns="http://www.w3.org/2000/svg">
<path d="M20.9722 9.60095V32.4039M26.6729 16.2518C26.6729 13.6295 24.1209 11.5012 20.9722 11.5012C17.8235 11.5012 15.2715 13.6295 15.2715 16.2518C15.2715 18.8741 17.8235 21.0024 20.9722 21.0024C24.1209 21.0024 26.6729 23.1307 26.6729 25.753C26.6729 28.3753 24.1209 30.5036 20.9722 30.5036C17.8235 30.5036 15.2715 28.3753 15.2715 25.753" stroke="#CFFF55" stroke-width="2.48087" stroke-linecap="round"/>
<path d="M11.4709 4.54255C14.3584 2.87205 17.6363 1.99488 20.9722 2.00002C31.4672 2.00002 39.9746 10.5074 39.9746 21.0024C39.9746 31.4975 31.4672 40.0049 20.9722 40.0049C10.4771 40.0049 1.96973 31.4975 1.96973 21.0024C1.96973 17.5421 2.89514 14.2946 4.51225 11.5012" stroke="#CFFF55" stroke-width="2.48087" stroke-linecap="round"/>
</svg>
