<svg width="42" height="42" viewBox="0 0 42 42" fill="none" xmlns="http://www.w3.org/2000/svg">
<path d="M20.9721 9.60107V32.404M26.6728 16.2519C26.6728 13.6296 24.1208 11.5013 20.9721 11.5013C17.8234 11.5013 15.2714 13.6296 15.2714 16.2519C15.2714 18.8743 17.8234 21.0025 20.9721 21.0025C24.1208 21.0025 26.6728 23.1308 26.6728 25.7531C26.6728 28.3755 24.1208 30.5037 20.9721 30.5037C17.8234 30.5037 15.2714 28.3755 15.2714 25.7531" stroke="url(#paint0_linear_447_19566)" stroke-width="2.48087" stroke-linecap="round"/>
<path d="M11.4709 4.54255C14.3584 2.87205 17.6363 1.99488 20.9722 2.00002C31.4672 2.00002 39.9746 10.5074 39.9746 21.0024C39.9746 31.4975 31.4672 40.0049 20.9722 40.0049C10.4771 40.0049 1.96973 31.4975 1.96973 21.0024C1.96973 17.5421 2.89514 14.2946 4.51225 11.5012" stroke="url(#paint1_linear_447_19566)" stroke-width="2.48087" stroke-linecap="round"/>
<defs>
<linearGradient id="paint0_linear_447_19566" x1="14.2157" y1="18.4793" x2="26.4768" y2="21.7398" gradientUnits="userSpaceOnUse">
<stop stop-color="#EBA6FF"/>
<stop offset="0.731815" stop-color="#60B7FF"/>
</linearGradient>
<linearGradient id="paint1_linear_447_19566" x1="-1.54924" y1="16.797" x2="32.5623" y2="34.9392" gradientUnits="userSpaceOnUse">
<stop stop-color="#EBA6FF"/>
<stop offset="0.731815" stop-color="#60B7FF"/>
</linearGradient>
</defs>
</svg>
