<svg width="42" height="42" viewBox="0 0 42 42" fill="none" xmlns="http://www.w3.org/2000/svg">
<path d="M20.9721 26.5811C24.3114 26.5811 27.0185 24.0288 27.0185 20.8804C27.0185 17.732 24.3114 15.1797 20.9721 15.1797C17.6327 15.1797 14.9256 17.732 14.9256 20.8804C14.9256 24.0288 17.6327 26.5811 20.9721 26.5811Z" stroke="url(#paint0_linear_447_19573)" stroke-width="2.48087"/>
<path d="M4.16497 18.296C5.1183 18.8585 5.73101 19.82 5.73101 20.8804C5.73101 21.9407 5.1183 22.9022 4.16497 23.4647C3.518 23.8504 3.09877 24.1564 2.8025 24.5212C2.4802 24.9173 2.24383 25.3694 2.10688 25.8516C1.96994 26.3338 1.9351 26.8368 2.00436 27.3317C2.10917 28.0804 2.57878 28.8481 3.51598 30.3816C4.45722 31.9151 4.92683 32.6809 5.56171 33.1426C5.98181 33.4465 6.46129 33.6693 6.97276 33.7985C7.48424 33.9276 8.01768 33.9604 8.54262 33.8951C9.02634 33.8343 9.5161 33.6481 10.1933 33.3098C10.6779 33.0598 11.2221 32.93 11.7745 32.9326C12.327 32.9353 12.8697 33.0703 13.3516 33.325C14.3251 33.8571 14.9035 34.8357 14.9438 35.8961C14.972 36.6182 15.0446 37.1122 15.232 37.536C15.4346 37.9974 15.7317 38.4167 16.1062 38.7698C16.4807 39.1229 16.9254 39.4029 17.4148 39.5939C18.1545 39.8828 19.0937 39.8828 20.9722 39.8828C22.8506 39.8828 23.7898 39.8828 24.5295 39.5939C25.0189 39.4029 25.4636 39.1229 25.8381 38.7698C26.2126 38.4167 26.5097 37.9974 26.7123 37.536C26.8977 37.1122 26.9723 36.6182 27.0005 35.8961C27.0408 34.8357 27.6192 33.8552 28.5927 33.325C29.0746 33.0703 29.6173 32.9353 30.1698 32.9326C30.7222 32.93 31.2664 33.0598 31.751 33.3098C32.4282 33.6481 32.92 33.8343 33.4037 33.8951C34.4632 34.0265 35.5347 33.7558 36.3826 33.1426C37.0175 32.6828 37.4871 31.9151 38.4263 30.3816C38.8455 29.6975 39.17 29.1673 39.4119 28.7227M37.7793 23.4666C37.3075 23.1962 36.9162 22.8172 36.6423 22.3651C36.3684 21.9131 36.2207 21.4028 36.2133 20.8823C36.2133 19.82 36.826 18.8585 37.7793 18.2941C38.4263 17.9103 38.8435 17.6043 39.1418 17.2395C39.4641 16.8434 39.7005 16.3913 39.8374 15.9091C39.9744 15.4269 40.0092 14.924 39.9399 14.429C39.8351 13.6803 39.3655 12.9126 38.4283 11.3791C37.4871 9.84565 37.0175 9.07985 36.3826 8.61809C35.9625 8.31422 35.483 8.09137 34.9715 7.96225C34.4601 7.83314 33.9266 7.80029 33.4017 7.86559C32.918 7.9264 32.4282 8.11263 31.749 8.45087C31.2646 8.70059 30.7209 8.8302 30.1688 8.82754C29.6167 8.82488 29.0744 8.69004 28.5927 8.43567C28.118 8.16945 27.7228 7.79384 27.4443 7.34411C27.1658 6.89438 27.013 6.38529 27.0005 5.86464C26.9723 5.14255 26.8997 4.64848 26.7123 4.22473C26.5097 3.76331 26.2126 3.34406 25.8381 2.99095C25.4636 2.63783 25.0189 2.35777 24.5295 2.16677C23.7898 1.87793 22.8506 1.87793 20.9722 1.87793C19.0937 1.87793 18.1545 1.87793 17.4148 2.16677C16.9254 2.35777 16.4807 2.63783 16.1062 2.99095C15.7317 3.34406 15.4346 3.76331 15.232 4.22473C15.0466 4.64848 14.972 5.14255 14.9438 5.86464C14.9313 6.38529 14.7786 6.89438 14.5 7.34411C14.2215 7.79384 13.8263 8.16945 13.3516 8.43567C12.8697 8.69038 12.327 8.82541 11.7745 8.82807C11.2221 8.83073 10.6779 8.70093 10.1933 8.45087C9.5161 8.11263 9.02432 7.9264 8.5406 7.86559C7.4811 7.73423 6.40962 8.0049 5.56171 8.61809C4.92884 9.07985 4.45722 9.84565 3.518 11.3791C3.09877 12.0632 2.77428 12.5934 2.53242 13.0381" stroke="url(#paint1_linear_447_19573)" stroke-width="2.48087" stroke-linecap="round"/>
<defs>
<linearGradient id="paint0_linear_447_19573" x1="13.8059" y1="19.6188" x2="24.3689" y2="25.5775" gradientUnits="userSpaceOnUse">
<stop stop-color="#EBA6FF"/>
<stop offset="0.731815" stop-color="#60B7FF"/>
</linearGradient>
<linearGradient id="paint1_linear_447_19573" x1="-1.54924" y1="16.6749" x2="32.5623" y2="34.8171" gradientUnits="userSpaceOnUse">
<stop stop-color="#EBA6FF"/>
<stop offset="0.731815" stop-color="#60B7FF"/>
</linearGradient>
</defs>
</svg>
