<svg width="250" height="51" viewBox="0 0 250 51" fill="none" xmlns="http://www.w3.org/2000/svg">
<g clip-path="url(#clip0_243_2318)">
<path d="M15.0534 21.8397L24.7502 12.1432L34.4522 21.8448L40.0944 16.2025L24.7502 0.85791L9.41113 16.1974L15.0534 21.8397Z" fill="#F3BA2F"/>
<path d="M11.0699 25.8228L5.42773 20.1807L-0.214721 25.8231L5.42746 31.4653L11.0699 25.8228Z" fill="#F3BA2F"/>
<path d="M15.0539 29.808L24.7507 39.5044L34.4522 29.8032L40.0977 35.4423L40.0949 35.4455L24.7507 50.7897L9.41121 35.4506L9.40332 35.4427L15.0539 29.808Z" fill="#F3BA2F"/>
<path d="M44.0753 31.4681L49.7178 25.8257L44.0756 20.1835L38.4331 25.826L44.0753 31.4681Z" fill="#F3BA2F"/>
<path d="M30.4729 25.8207H30.4752L24.7497 20.0952L20.5185 24.3264H20.5181L20.0323 24.8127L19.0294 25.8156L19.0215 25.8235L19.0294 25.8317L24.7497 31.5521L30.4752 25.8266L30.478 25.8235L30.4729 25.8207Z" fill="#F3BA2F"/>
<path d="M58.5127 12.957H70.7844C73.8301 12.957 76.1332 13.7387 77.6941 15.302C78.9021 16.5127 79.5059 18.0133 79.5059 19.8033V19.879C79.5059 20.6354 79.4124 21.3039 79.2243 21.8836C79.0366 22.4641 78.7858 22.9867 78.4722 23.4532C78.1595 23.9202 77.7959 24.3299 77.3826 24.6825C76.9689 25.0358 76.5244 25.3387 76.0484 25.5903C77.5794 26.1708 78.7846 26.9584 79.6632 27.9546C80.5415 28.9512 80.9812 30.3319 80.9812 32.0967V32.172C80.9812 33.3827 80.7486 34.4416 80.2828 35.3498C79.817 36.2573 79.1498 37.0141 78.281 37.6195C77.4122 38.2248 76.3675 38.6783 75.1465 38.9812C73.9255 39.2837 72.5724 39.4347 71.0876 39.4347H58.5127V12.957ZM69.5575 23.6615C70.8439 23.6615 71.8653 23.4414 72.6213 22.9997C73.3777 22.5584 73.756 21.8458 73.756 20.8626V20.7869C73.756 19.9047 73.4278 19.2303 72.7724 18.7634C72.1165 18.2968 71.1708 18.0634 69.9357 18.0634H64.1861V23.6615H69.5575ZM71.1085 34.3288C72.3946 34.3288 73.4026 34.0961 74.1345 33.6292C74.8657 33.1627 75.2317 32.4374 75.2317 31.4538V31.3785C75.2317 30.4959 74.8909 29.7963 74.2103 29.2789C73.5292 28.7627 72.4324 28.5039 70.9192 28.5039H64.1861V34.3292L71.1085 34.3288Z" fill="#F3BA2F"/>
<path d="M88.291 12.957H94.1167V39.4355H88.291V12.957Z" fill="#F3BA2F"/>
<path d="M102.938 12.957H108.309L120.716 29.2604V12.957H126.466V39.4355H121.511L108.688 22.603V39.4355H102.938V12.957Z" fill="#F3BA2F"/>
<path d="M144.103 12.7681H149.474L160.822 39.4355H154.732L152.311 33.497H141.114L138.694 39.4355H132.754L144.103 12.7681ZM150.23 28.3521L146.712 19.7658L143.195 28.3521H150.23Z" fill="#F3BA2F"/>
<path d="M167.11 12.957H172.482L184.889 29.2604V12.957H190.638V39.4355H185.683L172.86 22.603V39.4355H167.11V12.957Z" fill="#F3BA2F"/>
<path d="M211.604 39.8889C209.662 39.8889 207.859 39.5355 206.195 38.83C204.53 38.1245 203.093 37.1594 201.883 35.9361C200.672 34.7132 199.726 33.2694 199.046 31.6051C198.365 29.9405 198.024 28.1626 198.024 26.2712V26.1959C198.024 24.3045 198.365 22.5334 199.046 20.8814C199.726 19.2297 200.672 17.7796 201.883 16.5314C203.092 15.2832 204.543 14.2993 206.232 13.5807C207.921 12.8622 209.789 12.5029 211.831 12.5029C213.066 12.5029 214.194 12.6043 215.215 12.8054C216.237 13.0077 217.163 13.2846 217.996 13.6375C218.829 13.9909 219.597 14.4196 220.304 14.9236C221.009 15.4284 221.665 15.9829 222.27 16.5882L218.564 20.8624C217.529 19.9297 216.477 19.1978 215.405 18.6685C214.333 18.1393 213.129 17.8743 211.793 17.8743C210.683 17.8743 209.655 18.0888 208.71 18.5175C207.765 18.9462 206.951 19.5385 206.27 20.2949C205.59 21.0513 205.06 21.928 204.681 22.9238C204.304 23.9204 204.115 24.9856 204.115 26.1202V26.1955C204.115 27.3301 204.304 28.4024 204.681 29.4104C205.06 30.4196 205.582 31.3018 206.251 32.0582C206.919 32.8146 207.726 33.4141 208.672 33.8554C209.618 34.2971 210.658 34.5171 211.793 34.5171C213.306 34.5171 214.585 34.2399 215.632 33.685C216.678 33.1309 217.719 32.3741 218.753 31.4154L222.46 35.1604C221.779 35.8919 221.071 36.5478 220.342 37.1271C219.61 37.7076 218.809 38.2053 217.939 38.6218C217.069 39.0374 216.117 39.3533 215.084 39.5671C214.049 39.7812 212.889 39.8889 211.604 39.8889Z" fill="#F3BA2F"/>
<path d="M229.314 12.957H249.249V18.1395H235.064V23.5108H247.547V28.6929H235.064V34.2535H249.439V39.4355H229.314V12.957Z" fill="#F3BA2F"/>
</g>
<defs>
<clipPath id="clip0_243_2318">
<rect width="249.248" height="49.9318" fill="white" transform="translate(0 0.85791)"/>
</clipPath>
</defs>
</svg>
