<svg width="414" height="46" viewBox="0 0 414 46" fill="none" xmlns="http://www.w3.org/2000/svg">
<path d="M267.928 7.47909C267.808 5.32173 269.426 3.46399 271.583 3.34414C273.741 3.22429 275.599 4.84231 275.718 6.99967C275.838 9.15703 274.22 11.0148 272.063 11.1346H271.823C269.726 11.1945 267.988 9.57652 267.928 7.47909ZM268.228 14.4306H275.359V40.1991H268.228V14.4306ZM77.4208 5.86107H63.6377V40.259H78.3797C86.1102 40.259 90.2452 36.2439 90.2452 30.7307C90.4249 26.356 87.069 22.5806 82.6944 22.4008V22.0413C86.3499 21.5019 89.0466 18.3258 88.9268 14.6703C88.8668 9.5166 85.0315 5.86107 77.4208 5.86107ZM81.4959 15.8089C81.4959 18.5056 79.1587 20.1835 76.3422 20.1835L70.8289 20.2435V11.674H76.462C79.6981 11.674 81.4959 13.1122 81.4959 15.8089ZM82.5745 29.9516C82.5745 32.5284 80.8966 34.2064 76.8216 34.2064H70.8289V25.0975H76.8216C79.5782 24.6781 82.0951 26.5957 82.5146 29.3523C82.5745 29.5321 82.5745 29.7718 82.5745 29.9516ZM93.7209 40.259H100.972L100.852 5.86107H93.7209V40.259ZM104.747 27.4347C104.747 19.4644 109.601 14.1309 117.452 14.1309C125.242 14.1309 130.156 19.4644 130.156 27.4347C130.156 35.4049 125.302 40.7384 117.452 40.7384C109.601 40.7384 104.747 35.4049 104.747 27.4347ZM122.845 27.4347C122.845 22.9402 120.988 19.6442 117.452 19.6442C113.916 19.6442 111.999 22.9402 111.999 27.4347C111.999 31.9292 113.856 35.2252 117.452 35.2252C121.047 35.2252 122.845 31.9292 122.845 27.4347ZM145.498 14.1309C137.647 14.1309 132.853 19.5244 132.853 27.4347C132.853 35.345 137.587 40.7384 145.498 40.7384C152.269 40.7384 156.584 36.7233 156.944 30.7906H150.172C149.992 33.2476 147.955 35.1652 145.498 35.1053C142.142 35.1053 139.984 32.1689 139.984 27.3748C139.984 22.5806 142.142 19.7041 145.498 19.7041C147.955 19.6442 149.992 21.5619 150.172 24.0189H156.944C156.704 18.0262 152.209 14.1309 145.498 14.1309ZM160.719 5.86107H167.91V24.1986H168.27L176.54 14.4306H184.75L175.161 25.577L185.229 40.1991H176.839L169.828 29.7718L167.91 31.9891V40.259H160.779V5.86107H160.719ZM197.874 14.1309C190.023 14.1309 185.229 19.5244 185.229 27.4347C185.229 35.345 189.963 40.7384 197.933 40.7384C204.765 40.7384 209.08 36.7233 209.379 30.7906H202.668C202.488 33.2476 200.45 35.1652 197.993 35.1053C194.637 35.1053 192.48 32.1689 192.48 27.3748C192.48 22.5806 194.637 19.7041 197.993 19.7041C200.45 19.6442 202.548 21.5619 202.668 24.0189H209.379C209.14 18.0262 204.585 14.1309 197.874 14.1309ZM220.226 40.259H213.095V5.86107H220.046V19.0449H220.346C221.545 15.8688 224.661 13.8912 228.077 14.1309C233.41 14.1309 237.006 17.7865 237.006 23.8391V40.259H229.814V25.0975C230.174 22.7005 228.496 20.4832 226.099 20.1236C225.799 20.0637 225.5 20.0637 225.2 20.0637C222.563 19.9438 220.286 21.9813 220.166 24.6181V25.3373L220.226 40.259ZM250.19 25.0975C245.096 25.577 240.481 27.3148 240.481 33.0678C240.481 38.1616 244.137 40.7384 249.051 40.7384C252.167 40.9781 255.104 39.3601 256.602 36.6634H256.781V40.259H263.553V22.8203C263.553 16.6479 258.34 14.071 252.587 14.071C246.414 14.071 242.339 17.0074 241.32 21.7416L247.912 22.281C248.572 20.3633 250.489 19.1648 252.467 19.4045C254.924 19.4045 256.302 20.663 256.302 22.7604C256.362 24.4383 254.624 24.6181 250.19 25.0975ZM256.422 28.1538V31.0303C256.242 33.7869 253.905 35.8244 251.148 35.7046H251.029C248.811 35.7046 247.253 34.6858 247.253 32.7082C247.253 30.7306 248.931 29.7119 251.448 29.3523C253.186 29.1726 254.864 28.7531 256.422 28.1538ZM279.913 40.259H287.284L287.164 25.3373C286.865 22.7604 288.722 20.4233 291.299 20.0637C291.539 20.0637 291.779 20.0038 292.018 20.0637C294.475 19.9438 296.513 21.8016 296.633 24.2586C296.633 24.5582 296.633 24.7979 296.573 25.0975V40.259H303.764V23.8391C303.764 17.8464 300.228 14.1309 294.835 14.1309C291.479 13.8912 288.303 15.8688 287.044 19.0449H286.745V14.4905H279.913V40.259Z" fill="white"/>
<path d="M382.567 14.4303H375.735V40.1988H382.927V24.7377C382.747 22.9399 383.766 21.202 385.384 20.4229C385.923 20.1832 386.522 20.0035 387.121 20.0035C388.799 19.9435 390.298 20.9623 390.837 22.5803C391.017 23.1197 391.077 23.659 391.017 24.1983V40.2587H397.968V24.498C397.729 22.2807 399.347 20.3031 401.564 20.0634H402.163C404.261 19.9435 406.058 21.6215 406.178 23.7189V40.2587H413.369V23.0597C413.489 18.4454 409.894 14.6101 405.279 14.4902C402.043 14.4303 399.107 16.1682 397.609 19.0446H397.189C396.29 15.9884 393.354 13.9509 390.178 14.1306C386.942 13.9509 384.005 15.9884 382.987 19.0446H382.687L382.567 14.4303ZM332.468 14.1306C324.618 14.1306 319.824 19.5241 319.824 27.4344C319.824 35.3447 324.558 40.7381 332.588 40.7381C339.42 40.7381 343.735 36.723 344.034 30.7903H337.322C337.143 33.2473 335.105 35.1649 332.648 35.105C329.352 35.105 327.135 32.1686 327.135 27.3744C327.135 22.5803 329.292 19.7038 332.648 19.7038C335.105 19.6439 337.203 21.5616 337.322 24.0186H343.914C343.735 18.0259 339.18 14.1306 332.468 14.1306ZM309.816 33.7866C308.258 35.3447 308.258 37.9216 309.816 39.4797C311.374 41.0377 313.951 41.0377 315.509 39.4797C317.067 37.9216 317.067 35.3447 315.509 33.7866C314.73 33.0076 313.711 32.5881 312.633 32.5881C311.614 32.648 310.595 33.0675 309.816 33.7866ZM346.671 27.4344C346.671 19.4641 351.525 14.1306 359.375 14.1306C367.226 14.1306 372.02 19.4641 372.02 27.4344C372.02 35.4046 367.166 40.7381 359.375 40.7381C351.585 40.7381 346.671 35.4046 346.671 27.4344ZM364.769 27.4344C364.769 22.9399 362.911 19.6439 359.375 19.6439C355.84 19.6439 353.922 22.9399 353.922 27.4344C353.922 31.9289 355.78 35.2249 359.375 35.2249C362.971 35.2249 364.769 31.9289 364.769 27.4344Z" fill="white" fill-opacity="0.6"/>
<path d="M4.54973 16.7676L2.4523 18.865C0.0552274 21.1422 -0.00469655 24.9176 2.27252 27.3147C2.33245 27.3746 2.39237 27.4345 2.4523 27.4945L19.2917 44.5136C19.7112 44.9331 20.1307 45.2927 20.67 45.5324V24.8577L4.54973 16.7676Z" fill="#3D89F5"/>
<path d="M42.5435 16.7676L44.6409 18.865C46.9781 21.1422 47.0979 24.9176 44.8207 27.3147C44.7608 27.3746 44.7009 27.4345 44.6409 27.4945L27.7416 44.4537C27.3221 44.8732 26.9026 45.2328 26.3633 45.4725V24.8577L42.5435 16.7676Z" fill="#1656B9"/>
<path d="M38.4678 12.4528L27.9207 1.90571C25.5835 -0.43143 21.8082 -0.491354 19.471 1.78586C19.4111 1.84579 19.3512 1.84579 19.3512 1.90571L8.74414 12.4528L23.546 19.8238L38.4678 12.4528Z" fill="#85B5F8"/>
</svg>
