<svg width="305" height="90" viewBox="0 0 305 90" fill="none" xmlns="http://www.w3.org/2000/svg">
<path d="M49.7809 50.2904C48.9085 50.8236 47.8906 50.9205 47.115 50.4843C46.1456 49.9026 45.564 48.5939 45.564 46.8005V41.3233C45.564 38.7058 44.5461 36.8154 42.8011 36.3307C39.8444 35.4583 37.6147 39.0936 36.7907 40.4508L31.5559 48.8363V38.5119C31.5074 36.1369 30.7319 34.7312 29.2777 34.295C28.3083 34.0041 26.8542 34.1496 25.4485 36.2823L13.767 54.9921C12.216 52.0353 11.3919 48.7393 11.3919 45.3948C11.3919 34.1011 20.456 24.9401 31.5559 24.9401C42.6557 24.9401 51.7198 34.1011 51.7198 45.3948V45.4433V45.4918C51.8167 47.673 51.1381 49.4179 49.7809 50.2904ZM56.1791 45.3948V45.3463V45.2979C56.1307 31.5806 45.0793 20.3838 31.5559 20.3838C17.984 20.3838 6.93262 31.5806 6.93262 45.3948C6.93262 59.1606 17.984 70.4058 31.5559 70.4058C37.8086 70.4058 43.7221 68.0307 48.2784 63.7168C49.1993 62.8444 49.2478 61.4387 48.3753 60.5178C47.5513 59.5968 46.1456 59.5483 45.2247 60.3723C45.2247 60.3723 45.2247 60.3723 45.1762 60.4208C41.4924 63.9107 36.5484 65.898 31.4589 65.898C25.497 65.898 20.1652 63.2806 16.4814 59.1121L26.9996 42.2442V50.048C26.9996 53.7803 28.4537 54.9921 29.6655 55.3314C30.8773 55.6707 32.7192 55.4283 34.7065 52.2777L40.4745 42.9228C40.6684 42.632 40.8138 42.3411 41.0077 42.1473V46.8974C41.0077 50.3873 42.4134 53.1986 44.8369 54.5558C47.0181 55.8161 49.781 55.6707 52.0591 54.265C54.8704 52.4231 56.373 49.224 56.1791 45.3948ZM90.4966 36.8639C91.0782 37.2032 91.6114 38.0272 91.6114 38.7543C91.6114 39.9176 90.642 40.887 89.5272 40.887C89.2363 40.887 88.994 40.7901 88.7516 40.7416C87.4429 39.7722 85.7949 39.1421 84.0499 39.1421C79.9299 39.1421 77.1186 42.4866 77.1186 46.6551C77.1186 50.8236 79.9784 54.1196 84.0499 54.1196C86.0857 54.1196 87.9276 53.2956 89.2848 51.9869C89.6241 51.7445 90.0603 51.5991 90.4966 51.5991C91.6114 51.5991 92.4839 52.4716 92.4839 53.5864C92.4839 54.3135 92.0476 54.9436 91.5145 55.2829C89.5271 56.9794 86.8612 58.0942 84.0984 58.0942C77.7972 58.0942 72.6593 52.9078 72.6593 46.5096C72.6593 40.1115 77.7972 34.9251 84.0984 34.9251C86.425 34.8766 88.6547 35.6037 90.4966 36.8639ZM102.033 41.711C106.347 41.711 109.933 45.3463 109.933 49.8541C109.933 54.3135 106.298 58.1427 102.033 58.1427C97.5249 58.1427 93.7926 54.3619 93.7926 49.8541C93.7926 45.3463 97.5249 41.711 102.033 41.711ZM101.984 54.1196C103.875 54.1196 105.474 52.3262 105.474 49.9026C105.474 47.4791 103.875 45.928 101.984 45.928C99.9484 45.928 98.2519 47.4306 98.2519 49.9026C98.2519 52.2777 99.9484 54.1196 101.984 54.1196ZM112.648 55.6222V44.183C112.648 42.9228 113.617 41.9049 114.877 41.9049C116.089 41.9049 117.107 42.9228 117.107 44.183V55.6222C117.107 56.8824 116.089 57.9003 114.877 57.9003C113.666 57.9003 112.648 56.834 112.648 55.6222ZM112.309 37.591C112.309 36.0884 113.472 34.9251 114.877 34.9251C116.332 34.9251 117.495 36.1369 117.495 37.591C117.495 39.0451 116.332 40.2084 114.877 40.2084C113.423 40.1599 112.309 38.9966 112.309 37.591ZM125.638 49.4179V55.6222C125.638 56.8824 124.62 57.9003 123.408 57.9003C122.197 57.9003 121.179 56.8824 121.179 55.6222V43.6499C121.179 42.6804 121.954 41.9049 122.924 41.9049C123.893 41.9049 124.62 42.7289 124.62 43.6499C126.414 41.9534 128.013 41.711 129.516 41.711C133.975 41.711 135.962 45.0555 135.962 48.8847V55.6222C135.962 56.8824 134.944 57.9003 133.733 57.9003C132.521 57.9003 131.503 56.8824 131.503 55.6222V49.4179C131.503 47.4791 131.261 45.831 128.449 45.831C126.462 45.831 125.638 47.4791 125.638 49.4179ZM150.407 51.793C149.874 51.793 149.534 51.5506 149.243 51.2113L144.057 45.5887V55.6222C144.057 56.8824 143.039 57.9003 141.827 57.9003C140.616 57.9003 139.598 56.8824 139.598 55.6222V35.7491C139.743 35.4098 140.082 35.1674 140.422 35.1674C140.809 35.1674 141.149 35.5067 141.391 35.7491L149.68 45.0555C149.922 45.3463 150.213 45.4918 150.407 45.4918C150.552 45.4918 150.891 45.3463 151.134 45.0555L159.422 35.7491C159.665 35.5067 159.955 35.1674 160.392 35.1674C160.779 35.1674 161.119 35.4098 161.216 35.7491V55.6222C161.216 56.8824 160.246 57.9003 158.986 57.9003C157.774 57.9003 156.756 56.8824 156.756 55.6222V45.5887L151.57 51.2113C151.182 51.5506 150.843 51.793 150.407 51.793ZM171.831 54.1196C173.818 54.1196 175.515 52.3262 175.515 49.9026C175.515 47.4791 173.77 45.8795 171.831 45.8795C169.892 45.8795 168.292 47.5275 168.292 49.9026C168.292 52.2292 169.844 54.1196 171.831 54.1196ZM176.581 56.1554L176.484 55.6222C175.612 57.3187 172.849 58.0942 171.104 58.0942C166.935 58.0942 163.833 54.3135 163.833 49.8057C163.833 45.3463 166.984 41.6625 171.346 41.6625C172.073 41.6625 174.594 41.8564 176.533 44.1346L176.629 43.6014C176.629 42.632 177.357 41.8564 178.326 41.8564C179.295 41.8564 180.071 42.6804 180.071 43.6014V56.1069C180.071 57.0763 179.295 57.8519 178.326 57.8519C177.308 57.9003 176.581 57.0763 176.581 56.1554ZM192.334 45.831H191.849C189.038 45.9765 188.505 47.576 188.505 49.4179V55.6222C188.505 56.8824 187.487 57.9003 186.275 57.9003C185.063 57.9003 184.046 56.8824 184.046 55.6222V43.6499C184.046 42.6804 184.821 41.9049 185.79 41.9049C186.76 41.9049 187.487 42.7289 187.487 43.6499C189.135 42.0988 190.492 41.7595 191.849 41.711H192.286C193.352 41.711 194.321 42.632 194.321 43.7953C194.37 44.8616 193.4 45.831 192.334 45.831ZM209.541 54.5558C209.735 54.8951 209.881 55.2344 209.881 55.6222C209.881 56.7855 208.814 57.8519 207.651 57.8519C206.875 57.8519 206.197 57.2702 205.664 56.5916L200.526 50.6297V55.5737C200.526 56.834 199.508 57.8519 198.296 57.8519C197.084 57.8519 196.066 56.834 196.066 55.5737V37.3971C196.066 36.1369 197.036 35.119 198.296 35.119C199.556 35.119 200.526 36.1369 200.526 37.3971V48.7393L205.664 43.0682C206.197 42.4866 206.827 41.8564 207.602 41.8564C208.717 41.8564 209.735 42.8743 209.735 44.0376C209.735 44.3769 209.638 44.7647 209.444 45.0555L205.373 49.5148L209.541 54.5558ZM218.266 45.8795C217.054 45.8795 215.067 46.5096 215.067 48.4H221.514C221.465 46.5096 219.429 45.8795 218.266 45.8795ZM224.083 51.2598H215.067C215.067 53.9257 217.636 54.3619 218.751 54.3619C219.575 54.3619 220.738 54.2165 221.659 53.7803C221.95 53.5864 222.386 53.441 222.822 53.441C223.792 53.441 224.616 54.265 224.616 55.2829C224.616 55.9615 224.179 56.5431 223.646 56.8824C222.289 57.9003 220.496 58.1427 218.799 58.1427C214.291 58.1427 210.559 55.7191 210.559 50.048C210.559 45.5887 212.837 41.711 218.169 41.711C222.483 41.711 225.731 44.5223 225.827 49.5148C225.827 50.4358 225.052 51.2598 224.083 51.2598ZM236.491 58.0942H235.279C231.886 58.0942 229.899 56.5916 229.899 51.3083V45.831H228.736C227.669 45.831 226.748 44.8616 226.748 43.7953C226.748 42.632 227.718 41.711 228.736 41.711H229.899V37.494C229.899 36.2338 230.868 35.2159 232.129 35.2159C233.34 35.2159 234.358 36.2338 234.358 37.494V41.711H236.2C237.267 41.711 238.188 42.632 238.188 43.7953C238.188 44.8616 237.218 45.831 236.2 45.831H234.358V50.4358C234.358 53.4895 234.504 54.1196 235.861 54.1196H236.491C237.557 54.1196 238.478 54.9921 238.478 56.1069C238.478 57.1733 237.557 58.0942 236.491 58.0942ZM258.061 36.8639C258.642 37.2032 259.176 38.0272 259.176 38.7543C259.176 39.9176 258.206 40.887 257.091 40.887C256.8 40.887 256.558 40.7901 256.316 40.7416C255.007 39.7722 253.359 39.1421 251.614 39.1421C247.494 39.1421 244.683 42.4866 244.683 46.6551C244.683 50.8236 247.542 54.1196 251.614 54.1196C253.65 54.1196 255.492 53.2956 256.849 51.9869C257.188 51.7445 257.624 51.5991 258.061 51.5991C259.176 51.5991 260.048 52.4716 260.048 53.5864C260.048 54.3135 259.612 54.9436 259.079 55.2829C257.091 56.9794 254.425 58.0942 251.663 58.0942C245.361 58.0942 240.223 52.9078 240.223 46.5096C240.223 40.1115 245.361 34.9251 251.663 34.9251C253.989 34.8766 256.267 35.6037 258.061 36.8639ZM269.354 54.1196C271.342 54.1196 273.038 52.3262 273.038 49.9026C273.038 47.4791 271.293 45.8795 269.354 45.8795C267.367 45.8795 265.816 47.5275 265.816 49.9026C265.816 52.2292 267.416 54.1196 269.354 54.1196ZM274.105 56.1554L274.008 55.6222C273.135 57.3187 270.372 58.0942 268.627 58.0942C264.459 58.0942 261.357 54.3135 261.357 49.8057C261.357 45.3463 264.507 41.6625 268.87 41.6625C269.597 41.6625 272.117 41.8564 274.056 44.1346L274.153 43.6014C274.153 42.632 274.88 41.8564 275.85 41.8564C276.819 41.8564 277.594 42.6804 277.594 43.6014V56.1069C277.594 57.0763 276.819 57.8519 275.85 57.8519C274.832 57.9003 274.105 57.0763 274.105 56.1554ZM289.761 54.1196C291.748 54.1196 293.299 52.2292 293.299 49.9026C293.299 47.4791 291.7 45.8795 289.761 45.8795C287.773 45.8795 286.077 47.4791 286.077 49.9026C286.077 52.3262 287.773 54.1196 289.761 54.1196ZM286.077 56.7855V62.4566C286.077 63.7168 285.059 64.7347 283.847 64.7347C282.635 64.7347 281.618 63.7168 281.618 62.4566V43.6499C281.618 42.6804 282.393 41.9049 283.363 41.9049C284.332 41.9049 285.059 42.7289 285.059 43.8437C286.707 42.1473 288.743 41.711 290.294 41.711C294.608 41.711 297.807 45.3463 297.807 49.8541C297.807 54.3135 294.753 58.1427 290.536 58.1427C289.228 58.0942 287.289 57.7064 286.077 56.7855Z" fill="white"/>
</svg>
