<svg width="240" height="75" viewBox="0 0 240 75" fill="none" xmlns="http://www.w3.org/2000/svg">
<g clip-path="url(#clip0_447_20525)">
<path d="M7.13269 58.9546C10.2525 63.2942 14.2544 66.9251 18.876 69.6097C23.4976 72.294 28.6343 73.9712 33.9496 74.5313C31.215 70.4162 27.24 66.6304 22.2776 63.7481C17.3152 60.8658 12.06 59.2913 7.13269 58.9546Z" fill="url(#paint0_linear_447_20525)"/>
<path d="M28.9456 52.271C19.3851 46.7167 9.03737 45.3011 1.63324 47.8017C2.34802 50.1641 3.29069 52.4515 4.44797 54.6316C10.8809 54.4825 17.9045 56.2297 24.44 60.0256C30.9756 63.8215 35.9743 69.0604 39.0332 74.7237C41.5015 74.648 43.9569 74.3335 46.3647 73.785C44.8677 66.1156 38.5038 57.8266 28.9456 52.271Z" fill="url(#paint1_linear_447_20525)"/>
<path d="M74.5041 29.7247C73.2886 24.7805 71.0891 20.1319 68.0372 16.0566C64.9853 11.9812 61.1435 8.56262 56.7411 6.00496C52.3387 3.4473 47.466 1.80301 42.4142 1.17026C37.3622 0.5375 32.2345 0.929263 27.3374 2.32215C35.5186 3.32338 44.5998 6.39466 53.5057 11.5686C62.4118 16.7424 69.5843 23.109 74.5041 29.7247Z" fill="url(#paint2_linear_447_20525)"/>
<path d="M62.6012 47.8562C58.4134 40.9015 51.2397 34.2419 42.4024 29.1082C33.5653 23.9743 24.2289 21.0419 16.1201 20.848C8.98632 20.679 3.63222 22.7528 1.4345 26.5363C1.42199 26.5587 1.40446 26.5799 1.3907 26.6026C1.19295 27.3122 1.02274 28.0229 0.867554 28.7365C3.93635 27.5249 7.49197 26.8504 11.4456 26.7752C20.2377 26.6102 30.0772 29.4223 39.1573 34.6975C48.2372 39.9729 55.5599 47.1304 59.7701 54.8473C61.6576 58.3241 62.8352 61.7471 63.302 65.0173C63.8452 64.5318 64.3783 64.0299 64.8952 63.5081C64.9091 63.4843 64.9179 63.4592 64.9315 63.4342C67.1293 59.6471 66.2794 53.9699 62.6012 47.8562Z" fill="url(#paint3_linear_447_20525)"/>
<path d="M35.679 40.6807C22.146 32.8186 7.19137 31.587 0 37.0737C0.0141253 38.7911 0.145423 40.5055 0.392983 42.2051C2.50844 41.5638 4.6887 41.16 6.89349 41.0012C14.9296 40.3966 23.7893 42.6357 31.8293 47.3088C39.8691 51.9821 46.2069 58.5729 49.6636 65.8479C50.6192 67.841 51.348 69.9351 51.8363 72.0907C53.4358 71.4637 54.9909 70.7289 56.4909 69.8917C57.6948 60.9256 49.2157 48.5441 35.679 40.6807Z" fill="url(#paint4_linear_447_20525)"/>
<path d="M69.5619 36.2158C65.3268 29.2685 58.0904 22.5902 49.1905 17.4226C40.2909 12.255 30.918 9.27634 22.7831 9.03728C16.5817 8.85832 11.7783 10.3614 9.28767 13.2012C19.6292 11.449 33.2697 14.3939 46.491 22.0746C59.7124 29.7554 69.0314 40.1481 72.6284 49.999C73.8611 46.4308 72.7885 41.5136 69.5619 36.2158Z" fill="url(#paint5_linear_447_20525)"/>
<path d="M107.687 23.7434H114.001V44.8076C114.001 46.7548 113.563 48.4461 112.688 49.882C111.823 51.3178 110.618 52.4241 109.074 53.2009C107.53 53.9779 105.735 54.3663 103.69 54.3663C101.871 54.3663 100.219 54.0467 98.7336 53.4075C97.2585 52.7583 96.0883 51.775 95.2229 50.4573C94.3575 49.1297 93.9299 47.4628 93.9396 45.4568H100.297C100.317 46.2534 100.479 46.9367 100.784 47.5071C101.099 48.0677 101.527 48.5004 102.067 48.8052C102.618 49.1001 103.267 49.2476 104.015 49.2476C104.801 49.2476 105.465 49.0805 106.006 48.7462C106.557 48.4021 106.975 47.9004 107.26 47.2415C107.545 46.5827 107.687 45.7713 107.687 44.8076V23.7434ZM133.693 44.3061V31.2958H139.977V53.9532H133.944V49.8377H133.708C133.197 51.1653 132.346 52.2324 131.156 53.0387C129.976 53.845 128.535 54.2481 126.834 54.2481C125.32 54.2481 123.987 53.9041 122.837 53.2157C121.686 52.5273 120.786 51.5488 120.137 50.2803C119.498 49.0118 119.174 47.4924 119.164 45.7222V31.2958H125.447V44.6011C125.457 45.9386 125.816 46.9958 126.524 47.7725C127.232 48.5495 128.181 48.9379 129.371 48.9379C130.128 48.9379 130.837 48.7658 131.495 48.4217C132.154 48.0677 132.685 47.5464 133.088 46.858C133.502 46.1696 133.703 45.319 133.693 44.3061ZM145.004 62.4497V31.2958H151.199V35.1017H151.479C151.754 34.492 152.153 33.8724 152.674 33.2431C153.205 32.6038 153.893 32.0728 154.739 31.6498C155.595 31.2171 156.657 31.0009 157.925 31.0009C159.577 31.0009 161.102 31.4336 162.498 32.299C163.895 33.1545 165.011 34.4477 165.846 36.1785C166.682 37.8993 167.1 40.0579 167.1 42.6541C167.1 45.1815 166.692 47.3154 165.876 49.0558C165.07 50.7866 163.968 52.0995 162.572 52.9944C161.185 53.8794 159.632 54.322 157.91 54.322C156.691 54.322 155.654 54.1203 154.798 53.7171C153.952 53.314 153.259 52.8077 152.718 52.1978C152.177 51.5784 151.764 50.9539 151.479 50.3246H151.287V62.4497H145.004ZM151.155 42.6245C151.155 43.9718 151.341 45.1468 151.715 46.15C152.089 47.1532 152.63 47.9348 153.338 48.4953C154.046 49.0461 154.906 49.3215 155.919 49.3215C156.942 49.3215 157.807 49.0411 158.515 48.4808C159.223 47.9103 159.759 47.1236 160.123 46.1205C160.497 45.1076 160.684 43.9422 160.684 42.6245C160.684 41.3165 160.502 40.1661 160.138 39.1729C159.774 38.1797 159.238 37.4027 158.53 36.8421C157.822 36.2816 156.952 36.0015 155.919 36.0015C154.896 36.0015 154.031 36.2719 153.323 36.8126C152.625 37.3535 152.089 38.1206 151.715 39.1138C151.341 40.1071 151.155 41.2773 151.155 42.6245ZM171.29 53.9532V31.2958H177.573V53.9532H171.29ZM174.446 28.3752C173.512 28.3752 172.711 28.0655 172.042 27.4459C171.383 26.8166 171.053 26.0643 171.053 25.189C171.053 24.3236 171.383 23.5812 172.042 22.9616C172.711 22.3323 173.512 22.0176 174.446 22.0176C175.38 22.0176 176.177 22.3323 176.836 22.9616C177.505 23.5812 177.839 24.3236 177.839 25.189C177.839 26.0643 177.505 26.8166 176.836 27.4459C176.177 28.0655 175.38 28.3752 174.446 28.3752ZM194.659 31.2958V36.0162H181.014V31.2958H194.659ZM184.112 25.8675H190.396V46.9909C190.396 47.5711 190.484 48.0234 190.661 48.3478C190.838 48.6626 191.084 48.8839 191.399 49.0118C191.723 49.1396 192.097 49.2035 192.52 49.2035C192.815 49.2035 193.11 49.1788 193.405 49.1297C193.7 49.0706 193.926 49.0265 194.083 48.997L195.072 53.6731C194.757 53.7714 194.315 53.8845 193.744 54.0123C193.174 54.1498 192.48 54.2336 191.664 54.2629C190.15 54.322 188.822 54.1203 187.681 53.6583C186.55 53.1961 185.67 52.4781 185.041 51.5045C184.412 50.5309 184.102 49.3018 184.112 47.8168V25.8675ZM208.834 54.3958C206.503 54.3958 204.497 53.9237 202.816 52.9796C201.144 52.0258 199.856 50.6786 198.951 48.9379C198.046 47.1875 197.594 45.1175 197.594 42.7279C197.594 40.3971 198.046 38.3516 198.951 36.5915C199.856 34.8312 201.129 33.4593 202.771 32.476C204.424 31.4925 206.361 31.0009 208.583 31.0009C210.078 31.0009 211.47 31.2418 212.758 31.7237C214.056 32.1956 215.187 32.9087 216.151 33.8625C217.124 34.8165 217.881 36.0162 218.422 37.4618C218.963 38.8976 219.234 40.579 219.234 42.5066V44.2323H200.102V40.3381H213.318C213.318 39.4335 213.122 38.632 212.728 37.9337C212.335 37.2356 211.789 36.6898 211.091 36.2964C210.403 35.8932 209.601 35.6915 208.687 35.6915C207.733 35.6915 206.887 35.9128 206.149 36.3555C205.422 36.7881 204.851 37.3731 204.438 38.1107C204.025 38.8385 203.814 39.6497 203.804 40.5446V44.2471C203.804 45.3681 204.011 46.3369 204.424 47.1532C204.847 47.9694 205.442 48.5987 206.209 49.0413C206.976 49.4837 207.885 49.705 208.937 49.705C209.636 49.705 210.275 49.6067 210.855 49.4101C211.435 49.2132 211.932 48.9183 212.345 48.5248C212.758 48.1316 213.073 47.6498 213.289 47.0793L219.101 47.4628C218.806 48.8592 218.201 50.0786 217.286 51.121C216.382 52.1537 215.212 52.96 213.776 53.5401C212.35 54.1106 210.703 54.3958 208.834 54.3958ZM223.334 53.9532V31.2958H229.426V35.2491H229.662C230.075 33.8428 230.769 32.7808 231.743 32.0629C232.715 31.3353 233.836 30.9714 235.105 30.9714C235.419 30.9714 235.759 30.991 236.123 31.0305C236.488 31.0697 236.806 31.1237 237.083 31.1927V36.7685C236.788 36.6799 236.379 36.6012 235.858 36.5325C235.336 36.4637 234.859 36.4293 234.427 36.4293C233.502 36.4293 232.676 36.6308 231.949 37.0339C231.231 37.4274 230.661 37.978 230.238 38.686C229.825 39.3942 229.618 40.2102 229.618 41.1347V53.9532H223.334Z" fill="white"/>
</g>
<defs>
<linearGradient id="paint0_linear_447_20525" x1="49.6156" y1="15.8778" x2="15.3848" y2="74.724" gradientUnits="userSpaceOnUse">
<stop offset="0.0001" stop-color="#C7F284"/>
<stop offset="1" stop-color="#00BEF0"/>
</linearGradient>
<linearGradient id="paint1_linear_447_20525" x1="49.6156" y1="15.8776" x2="15.3848" y2="74.7237" gradientUnits="userSpaceOnUse">
<stop offset="0.0001" stop-color="#C7F284"/>
<stop offset="1" stop-color="#00BEF0"/>
</linearGradient>
<linearGradient id="paint2_linear_447_20525" x1="49.6151" y1="15.8765" x2="15.3844" y2="74.7226" gradientUnits="userSpaceOnUse">
<stop offset="0.0001" stop-color="#C7F284"/>
<stop offset="1" stop-color="#00BEF0"/>
</linearGradient>
<linearGradient id="paint3_linear_447_20525" x1="49.6155" y1="15.8755" x2="15.3848" y2="74.7216" gradientUnits="userSpaceOnUse">
<stop offset="0.0001" stop-color="#C7F284"/>
<stop offset="1" stop-color="#00BEF0"/>
</linearGradient>
<linearGradient id="paint4_linear_447_20525" x1="49.6154" y1="15.8764" x2="15.3846" y2="74.7226" gradientUnits="userSpaceOnUse">
<stop offset="0.0001" stop-color="#C7F284"/>
<stop offset="1" stop-color="#00BEF0"/>
</linearGradient>
<linearGradient id="paint5_linear_447_20525" x1="49.6156" y1="15.8756" x2="15.3848" y2="74.7217" gradientUnits="userSpaceOnUse">
<stop offset="0.0001" stop-color="#C7F284"/>
<stop offset="1" stop-color="#00BEF0"/>
</linearGradient>
<clipPath id="clip0_447_20525">
<rect width="240" height="73.8462" fill="white" transform="translate(0 0.876953)"/>
</clipPath>
</defs>
</svg>
