<svg width="293" height="46" viewBox="0 0 293 46" fill="none" xmlns="http://www.w3.org/2000/svg">
<g clip-path="url(#clip0_447_20508)">
<path d="M57.105 34.9592C56.5894 35.0111 56.0737 34.8605 55.667 34.5394C55.3777 34.1581 55.2393 33.6834 55.2783 33.2063V12.9026C55.2363 12.6553 55.2547 12.4015 55.3321 12.1628C55.4094 11.9242 55.5433 11.7078 55.7224 11.5321C55.9015 11.3565 56.1204 11.2268 56.3605 11.1541C56.6006 11.0814 56.8547 11.0679 57.1012 11.1147H65.6906C68.9631 11.1147 71.3715 11.8052 72.9158 13.1863C74.4601 14.5673 75.231 16.6247 75.2284 19.3582C75.2284 22.0685 74.4575 24.1129 72.9158 25.4913C71.3741 26.8698 68.9657 27.5487 65.6906 27.5279H62.3598V33.2063C62.3809 33.4452 62.3548 33.6859 62.2827 33.9147C62.2107 34.1434 62.0942 34.3557 61.94 34.5394C61.5334 34.8609 61.0176 35.0115 60.502 34.9592H57.105ZM65.1348 22.4403C65.5362 22.4662 65.9386 22.4106 66.318 22.2771C66.6973 22.1435 67.0458 21.9346 67.3424 21.663C67.8827 21.15 68.1508 20.3765 68.1508 19.331C68.1508 18.2855 67.8827 17.4927 67.3424 16.9991C67.0458 16.7275 66.6973 16.5186 66.318 16.385C65.9386 16.2514 65.5362 16.1959 65.1348 16.2217H62.3636V22.4403H65.1348Z" fill="white"/>
<path d="M83.5146 35.4764C81.3174 35.4764 79.5528 34.7742 78.221 33.3698C76.8892 31.9655 76.2414 29.9677 76.2777 27.3767C76.2365 25.5678 76.6965 23.7827 77.6069 22.2191C78.5276 20.7408 79.8556 19.5599 81.4314 18.8183C83.2155 17.9734 85.171 17.553 87.1447 17.5902C88.732 17.5703 90.314 17.7758 91.8436 18.2003C93.1827 18.5551 94.4604 19.1107 95.6331 19.8483V33.8751C95.6541 34.0301 95.6429 34.1879 95.6001 34.3383C95.5573 34.4888 95.4838 34.6288 95.3843 34.7496C95.0889 34.923 94.7455 34.9966 94.4049 34.9595H90.8292C90.6243 34.9699 90.4198 34.9341 90.2307 34.8545C90.0793 34.7477 89.9587 34.6029 89.8809 34.4348L89.4261 33.3815C88.7522 34.1046 87.9076 34.6471 86.9698 34.9595C85.8581 35.3366 84.6879 35.5116 83.5146 35.4764ZM86.1458 30.7075C86.916 30.7521 87.6759 30.5144 88.2835 30.039C88.5464 29.8018 88.7527 29.5085 88.8872 29.1809C89.0218 28.8534 89.0811 28.4998 89.0608 28.1462V22.6894C88.5293 22.4588 87.953 22.3499 87.374 22.3707C86.8122 22.3498 86.2528 22.4557 85.7375 22.6804C85.2221 22.9051 84.7639 23.2429 84.3968 23.6688C83.661 24.5446 83.2931 25.7598 83.2931 27.3145C83.2931 29.5843 84.244 30.7192 86.1458 30.7192V30.7075Z" fill="white"/>
<path d="M100.491 34.9594C99.9757 35.0113 99.4601 34.8608 99.0533 34.5396C98.8991 34.3559 98.7826 34.1436 98.7106 33.9149C98.6386 33.6861 98.6124 33.4454 98.6336 33.2065V19.2146C98.5972 18.919 98.6705 18.6203 98.8396 18.3751C99.1262 18.1756 99.4762 18.0884 99.8229 18.1303H103.434C103.652 18.1168 103.871 18.1653 104.063 18.2702C104.146 18.3058 104.216 18.3642 104.266 18.4386C104.317 18.513 104.345 18.6002 104.347 18.69L104.522 19.7432C105.246 19.0391 106.121 18.5077 107.079 18.1886C108.228 17.7786 109.44 17.5759 110.659 17.59C112.553 17.59 114.083 18.1277 115.249 19.203C116.415 20.2783 116.999 21.8446 117.002 23.9019V33.1948C117.023 33.4337 116.997 33.6744 116.925 33.9032C116.853 34.132 116.736 34.3443 116.582 34.5279C116.325 34.8078 115.859 34.9477 115.179 34.9477H111.782C111.256 34.9945 110.731 34.845 110.309 34.5279C110.155 34.3443 110.038 34.132 109.966 33.9032C109.894 33.6744 109.868 33.4337 109.889 33.1948V24.3722C109.942 23.8293 109.778 23.2876 109.435 22.8642C109.238 22.6957 109.009 22.5683 108.762 22.4896C108.515 22.4108 108.255 22.3822 107.996 22.4056C107.385 22.3756 106.784 22.5768 106.314 22.9691C106.109 23.1707 105.95 23.4137 105.846 23.6818C105.743 23.9499 105.698 24.237 105.715 24.5238V33.2182C105.736 33.457 105.71 33.6978 105.638 33.9265C105.566 34.1553 105.449 34.3676 105.295 34.5513C105.039 34.8311 104.572 34.971 103.892 34.971L100.491 34.9594Z" fill="white"/>
<path d="M129.4 35.4759C126.128 35.4759 123.604 34.7154 121.829 33.1945C120.054 31.6735 119.165 29.4646 119.163 26.5678C119.129 24.9192 119.554 23.2938 120.391 21.8727C121.234 20.4942 122.466 19.3961 123.932 18.7168C125.672 17.934 127.566 17.5515 129.474 17.5974C130.843 17.5684 132.211 17.7226 133.539 18.0561C134.618 18.3339 135.636 18.8111 136.54 19.463C136.655 19.5236 136.752 19.6139 136.82 19.7247C136.889 19.8354 136.926 19.9625 136.928 20.0927C136.9 20.3574 136.803 20.6104 136.649 20.8272L135.211 23.3186C135.032 23.6502 134.827 23.816 134.596 23.816C134.355 23.7767 134.126 23.6808 133.928 23.5362C133.369 23.1739 132.769 22.8803 132.14 22.6617C131.483 22.4543 130.796 22.3584 130.107 22.378C129.582 22.3578 129.058 22.4472 128.569 22.6406C128.08 22.834 127.636 23.1271 127.266 23.5012C126.528 24.3542 126.15 25.4608 126.213 26.5872C126.213 27.9203 126.578 28.9503 127.301 29.6732C127.704 30.0366 128.175 30.3167 128.687 30.4975C129.198 30.6782 129.741 30.7561 130.282 30.7265C130.973 30.7362 131.66 30.6284 132.315 30.4078C132.962 30.1801 133.585 29.8871 134.173 29.5333C134.384 29.3903 134.624 29.2948 134.876 29.2534C135.086 29.2534 135.273 29.4167 135.436 29.7431L137.014 32.4444C137.112 32.6159 137.172 32.8069 137.189 33.004C137.173 33.1299 137.126 33.2499 137.053 33.3535C136.98 33.4572 136.882 33.5413 136.769 33.5987C135.776 34.2363 134.687 34.7101 133.543 35.0017C132.19 35.3488 130.796 35.5083 129.4 35.4759Z" fill="white"/>
<path d="M146.078 35.4762C143.878 35.4762 142.113 34.774 140.784 33.3696C139.455 31.9652 138.799 29.9675 138.817 27.3764C138.778 25.5672 139.239 23.7822 140.151 22.2189C141.07 20.7407 142.396 19.5597 143.971 18.8181C145.757 17.9766 147.714 17.5589 149.688 17.5977C151.275 17.5741 152.857 17.7756 154.387 18.1962C155.725 18.5502 157.002 19.1059 158.173 19.8442V33.871C158.193 34.0257 158.181 34.1828 158.139 34.333C158.097 34.4833 158.025 34.6235 157.928 34.7455C157.632 34.9189 157.289 34.9925 156.948 34.9553H153.369C153.165 34.9655 152.962 34.9296 152.774 34.8504C152.623 34.7436 152.502 34.5988 152.424 34.4306L151.97 33.3774C151.296 34.1005 150.451 34.643 149.513 34.9553C148.408 35.3311 147.245 35.5075 146.078 35.4762ZM148.705 30.7073C149.476 30.7517 150.237 30.5141 150.846 30.0388C151.11 29.8017 151.316 29.5085 151.451 29.1809C151.585 28.8532 151.644 28.4996 151.624 28.146V22.6892C151.094 22.4591 150.519 22.3502 149.941 22.3705C149.378 22.3496 148.819 22.4554 148.303 22.6801C147.787 22.9048 147.328 23.2426 146.96 23.6686C146.232 24.5444 145.868 25.7596 145.868 27.3142C145.868 29.584 146.813 30.7189 148.705 30.7189V30.7073Z" fill="white"/>
<path d="M180.202 33.626C180.359 33.7997 180.446 34.0254 180.447 34.2596C180.45 34.3567 180.432 34.4534 180.396 34.5436C180.36 34.6339 180.306 34.7158 180.237 34.7843C180.076 34.9073 179.876 34.9692 179.674 34.9592H174.24C173.992 34.9673 173.744 34.9438 173.502 34.8892C173.327 34.7895 173.173 34.6576 173.047 34.5005L168.278 28.0138V33.2024C168.299 33.4413 168.273 33.682 168.201 33.9108C168.129 34.1395 168.012 34.3518 167.858 34.5355C167.451 34.8567 166.936 35.0072 166.42 34.9553H163.019C162.504 35.0076 161.988 34.857 161.581 34.5355C161.292 34.1542 161.154 33.6795 161.193 33.2024V12.9026C161.151 12.6553 161.169 12.4015 161.246 12.1628C161.324 11.9242 161.458 11.7078 161.637 11.5321C161.816 11.3565 162.035 11.2268 162.275 11.1541C162.515 11.0814 162.769 11.0679 163.015 11.1147H166.416C166.675 11.0877 166.936 11.1145 167.183 11.1935C167.431 11.2724 167.659 11.4017 167.854 11.5733C168.008 11.7564 168.125 11.9681 168.197 12.1962C168.269 12.4242 168.295 12.6643 168.274 12.9026V24.6518L172.903 18.6198C173.018 18.4529 173.175 18.3189 173.358 18.2311C173.595 18.1497 173.846 18.1141 174.096 18.1262H179.538C179.636 18.1193 179.734 18.1346 179.826 18.171C179.917 18.2073 179.999 18.2637 180.066 18.3361C180.136 18.3961 180.192 18.4715 180.228 18.5565C180.264 18.6414 180.281 18.7335 180.276 18.8258C180.275 19.0599 180.188 19.2856 180.031 19.4593L174.034 26.3308L180.202 33.626Z" fill="white"/>
<path d="M191.586 35.4761C189.785 35.5057 187.996 35.1712 186.327 34.4928C184.862 33.8841 183.607 32.86 182.717 31.5468C181.793 30.1187 181.328 28.4426 181.384 26.7429C181.384 23.7735 182.224 21.5063 183.906 19.9413C185.588 18.3763 188.008 17.5951 191.166 17.5977C194.252 17.5977 196.584 18.375 198.162 19.9296C199.74 21.4843 200.547 23.5999 200.584 26.2765C200.584 27.4425 200.067 28.0294 199.029 28.0294H188.045C188.022 28.4783 188.113 28.9256 188.31 29.33C188.506 29.7343 188.802 30.0824 189.169 30.3419C189.946 30.8808 191.103 31.1503 192.639 31.1503C193.441 31.1673 194.241 31.085 195.022 30.9055C195.704 30.7059 196.363 30.4349 196.988 30.097C197.165 30.0104 197.354 29.9514 197.548 29.9221C197.758 29.9221 197.933 30.0621 198.073 30.3419L199.266 32.5884C199.36 32.7492 199.42 32.9279 199.441 33.1131C199.425 33.2389 199.378 33.3589 199.305 33.4626C199.232 33.5662 199.134 33.6504 199.021 33.7077C198.025 34.3562 196.921 34.8197 195.76 35.0758C194.388 35.3653 192.988 35.4996 191.586 35.4761ZM194.287 24.5353C194.31 24.1548 194.253 23.7738 194.119 23.4169C193.985 23.06 193.777 22.7353 193.51 22.4637C192.992 21.974 192.221 21.7291 191.197 21.7291C190.349 21.675 189.512 21.9538 188.865 22.5065C188.591 22.7673 188.377 23.0844 188.238 23.436C188.098 23.7876 188.036 24.1653 188.057 24.5431L194.287 24.5353Z" fill="white"/>
<path d="M212.616 35.4762C210.742 35.4847 208.873 35.284 207.043 34.8777C205.533 34.5672 204.094 33.9795 202.799 33.1442C202.402 32.8851 202.204 32.6169 202.204 32.3397C202.211 32.124 202.283 31.9155 202.41 31.7412L204.128 29.0205C204.319 28.7368 204.517 28.5969 204.692 28.5969C204.907 28.6342 205.111 28.7178 205.29 28.8417C206.217 29.3611 207.206 29.762 208.232 30.0349C209.294 30.3327 210.391 30.4857 211.493 30.4897C212.593 30.4897 213.398 30.3264 213.915 30C214.18 29.8358 214.396 29.6018 214.538 29.3235C214.68 29.0453 214.742 28.7334 214.719 28.422C214.729 28.0951 214.653 27.7714 214.5 27.4825C214.346 27.1937 214.121 26.9495 213.845 26.774C212.837 26.1614 211.767 25.656 210.654 25.266C208.291 24.3799 206.443 23.3862 205.111 22.285C203.78 21.1838 203.132 19.6641 203.168 17.726C203.168 15.4147 203.999 13.6502 205.659 12.4324C207.32 11.2146 209.523 10.6044 212.267 10.6018C213.918 10.5723 215.567 10.7485 217.175 11.1265C218.433 11.4077 219.622 11.9361 220.673 12.6812C221.062 12.9843 221.268 13.268 221.268 13.5245C221.256 13.728 221.183 13.923 221.058 14.0842L219.34 16.8049C219.13 17.0847 218.944 17.2246 218.781 17.2246C218.566 17.188 218.361 17.1044 218.182 16.9798C216.739 16.0684 215.057 15.6071 213.351 15.6544C212.544 15.6046 211.738 15.7738 211.019 16.1441C210.75 16.3141 210.533 16.5541 210.391 16.8383C210.248 17.1225 210.186 17.4402 210.211 17.7571C210.19 18.2161 210.341 18.6662 210.634 19.0202C210.952 19.3778 211.331 19.6754 211.754 19.8986C212.247 20.1318 212.993 20.435 214 20.8081L214.665 21.0568C216.081 21.5792 217.444 22.2365 218.734 23.0196C219.679 23.5675 220.464 24.3525 221.012 25.2971C221.565 26.3303 221.833 27.4919 221.789 28.663C221.824 29.6184 221.63 30.5684 221.225 31.4343C220.819 32.3001 220.213 33.0568 219.457 33.6417C217.913 34.8647 215.632 35.4762 212.616 35.4762Z" fill="white"/>
<path d="M229.255 34.9589C228.975 34.9747 228.696 34.9143 228.447 34.784C228.224 34.6114 228.075 34.3619 228.027 34.0844L223.503 18.9266C223.465 18.8256 223.441 18.7196 223.433 18.6118C223.433 18.2853 223.666 18.1221 224.133 18.1221H228.762C228.998 18.1026 229.234 18.1643 229.43 18.297C229.507 18.3558 229.571 18.4295 229.62 18.5136C229.668 18.5977 229.698 18.6905 229.71 18.7867L231.603 26.7465L233.985 20.3297C234.06 20.1189 234.18 19.9276 234.339 19.77C234.546 19.6348 234.792 19.5731 235.039 19.5951H237.246C237.483 19.5677 237.722 19.6301 237.915 19.77C238.095 19.916 238.229 20.1101 238.303 20.3297L240.635 26.7465L242.579 18.7867C242.621 18.5993 242.719 18.4288 242.858 18.297C243.039 18.161 243.264 18.0984 243.488 18.1221H248.152C248.622 18.1221 248.855 18.2853 248.855 18.6118C248.848 18.7196 248.824 18.8256 248.786 18.9266L244.227 34.0844C244.179 34.3619 244.029 34.6114 243.807 34.784C243.571 34.9195 243.3 34.9805 243.029 34.9589H239.594C239.337 34.9769 239.08 34.9159 238.859 34.784C238.661 34.5906 238.515 34.3498 238.435 34.0844L236.123 27.7376L233.791 34.0844C233.731 34.3571 233.584 34.6027 233.371 34.784C233.15 34.9159 232.894 34.9769 232.637 34.9589H229.255Z" fill="white"/>
<path d="M257.744 35.4758C255.547 35.4758 253.782 34.7736 252.45 33.3692C251.119 31.9648 250.463 29.9671 250.484 27.376C250.444 25.5668 250.905 23.7818 251.817 22.2185C252.736 20.7403 254.063 19.5593 255.637 18.8177C257.424 17.9754 259.38 17.5577 261.355 17.5973C262.941 17.5737 264.523 17.7752 266.054 18.1958C267.392 18.5499 268.668 19.1055 269.839 19.8438V33.8706C269.859 34.0253 269.847 34.1824 269.805 34.3327C269.763 34.4829 269.692 34.6231 269.594 34.7451C269.298 34.9188 268.953 34.9924 268.611 34.955H265.035C264.832 34.9651 264.629 34.9292 264.441 34.85C264.289 34.7432 264.169 34.5984 264.091 34.4303L263.632 33.3809C262.96 34.1038 262.116 34.6464 261.18 34.9588C260.074 35.3333 258.911 35.5083 257.744 35.4758ZM260.371 30.7069C261.143 30.7513 261.904 30.5137 262.513 30.0384C262.776 29.8013 262.983 29.5081 263.117 29.1805C263.252 28.8529 263.311 28.4992 263.29 28.1456V22.6888C262.76 22.4587 262.185 22.3498 261.607 22.3701C261.045 22.3492 260.485 22.455 259.969 22.6797C259.453 22.9044 258.994 23.2422 258.626 23.6682C257.903 24.5362 257.541 25.7514 257.538 27.3139C257.533 29.5836 258.477 30.7185 260.371 30.7185V30.7069Z" fill="white"/>
<path d="M274.686 42.0446C274.169 42.0979 273.653 41.9457 273.248 41.621C272.959 41.2406 272.821 40.7675 272.859 40.2917V20.1979C274.072 19.3726 275.409 18.7456 276.82 18.3401C278.433 17.8456 280.111 17.5966 281.798 17.6016C288.862 17.599 292.393 20.5917 292.393 26.5797C292.393 29.2926 291.646 31.4548 290.151 33.0665C288.656 34.6782 286.539 35.4814 283.8 35.4762C283.043 35.4787 282.29 35.3833 281.557 35.1925C280.932 35.0375 280.339 34.7744 279.804 34.4152V40.2723C279.825 40.5106 279.799 40.7506 279.727 40.9787C279.655 41.2068 279.539 41.4185 279.385 41.6015C278.979 41.9252 278.463 42.0772 277.947 42.0252L274.686 42.0446ZM282.296 30.7734C282.735 30.8 283.174 30.7102 283.568 30.513C283.962 30.3157 284.296 30.0181 284.538 29.6502C285.096 28.7206 285.366 27.647 285.316 26.5642C285.316 25.0458 285.013 23.9822 284.406 23.3733C283.823 22.7436 282.91 22.4249 281.686 22.4249C281.039 22.3981 280.395 22.5067 279.793 22.7436V28.317C279.77 28.6508 279.817 28.9857 279.933 29.2998C280.048 29.6139 280.228 29.9001 280.461 30.1399C280.969 30.5717 281.623 30.7916 282.288 30.754L282.296 30.7734Z" fill="white"/>
<path d="M8.89534 7.16544C8.74346 6.35185 8.76297 5.51553 8.95262 4.70991C9.14228 3.90429 9.49791 3.1471 9.99679 2.48671C10.4957 1.82633 11.1268 1.27728 11.8499 0.874646C12.573 0.472013 13.3722 0.224648 14.1963 0.148371C15.0204 0.0720938 15.8514 0.168585 16.6361 0.43166C17.4208 0.694734 18.142 1.11861 18.7536 1.67621C19.3653 2.23382 19.8538 2.91287 20.1881 3.66999C20.5224 4.42712 20.6951 5.24566 20.6951 6.0733V13.4074C21.5139 13.3478 22.3482 13.3193 23.1981 13.3219C24.048 13.3244 24.8499 13.3504 25.6039 13.3996V6.0733C25.604 5.24566 25.7766 4.42712 26.1109 3.66999C26.4452 2.91287 26.9338 2.23382 27.5454 1.67621C28.157 1.11861 28.8782 0.694734 29.6629 0.43166C30.4477 0.168585 31.2786 0.0720938 32.1028 0.148371C32.9269 0.224648 33.726 0.472013 34.4491 0.874646C35.1722 1.27728 35.8034 1.82633 36.3023 2.48671C36.8011 3.1471 37.1568 3.90429 37.3464 4.70991C37.5361 5.51553 37.5556 6.35185 37.4037 7.16544L35.7908 15.786C41.3175 18.1996 45.5073 22.3932 45.5073 27.6557V30.8427C45.5073 35.1724 42.6429 38.7987 38.6397 41.2433C34.6364 43.688 29.133 45.1922 23.1981 45.1922C17.2632 45.1922 11.8025 43.7269 7.76433 41.2589C3.72613 38.7909 0.896667 35.1724 0.896667 30.8427V27.6557C0.896667 22.4165 5.03203 18.2423 10.5122 15.8248L8.89534 7.16544ZM33.727 16.9209L35.612 6.81565C35.7204 6.24964 35.7092 5.66721 35.5792 5.10578C35.4491 4.54436 35.203 4.01634 34.8567 3.55569C34.5105 3.09503 34.0716 2.71193 33.5684 2.43098C33.0653 2.15003 32.5089 1.97744 31.935 1.92434C31.3612 1.87123 30.7826 1.93876 30.2364 2.12259C29.6902 2.30643 29.1885 2.6025 28.7636 2.99178C28.3386 3.38106 27.9998 3.85493 27.7689 4.38295C27.538 4.91097 27.4201 5.48146 27.4229 6.05775V15.3856C26.8243 15.3079 26.218 15.2457 25.6039 15.203C24.8266 15.1447 24.0104 15.1175 23.1981 15.1175C22.3858 15.1175 21.5152 15.1486 20.6951 15.2107C20.0772 15.2574 19.4708 15.3196 18.8723 15.3973V6.06941C18.875 5.49312 18.7571 4.92263 18.5263 4.39461C18.2954 3.86659 17.9565 3.39272 17.5316 3.00344C17.1067 2.61416 16.605 2.31809 16.0588 2.13425C15.5126 1.95042 14.934 1.88289 14.3601 1.93599C13.7863 1.9891 13.2299 2.16169 12.7267 2.44264C12.2235 2.72359 11.7847 3.10669 11.4384 3.56735C11.0921 4.028 10.8461 4.55602 10.716 5.11744C10.5859 5.67887 10.5747 6.2613 10.6832 6.82731L12.576 16.9325C6.66442 19.1518 2.71561 23.12 2.71561 27.6557V30.8427C2.71561 37.7532 11.888 43.3577 23.1981 43.3577C34.5082 43.3577 43.6767 37.7532 43.6767 30.8427V27.6557C43.6767 23.0967 39.689 19.109 33.727 16.9209Z" fill="#633001"/>
<path d="M43.6766 30.8433C43.6766 37.7537 34.5081 43.3582 23.198 43.3582C11.8879 43.3582 2.71552 37.7537 2.71552 30.8433V27.6562H43.6766V30.8433Z" fill="#FEDC90"/>
<path d="M10.6831 6.83173C10.5747 6.26573 10.5858 5.68331 10.7159 5.12188C10.846 4.56045 11.092 4.03244 11.4383 3.57179C11.7846 3.11113 12.2235 2.72802 12.7266 2.44706C13.2298 2.16611 13.7862 1.99354 14.36 1.94043C14.9339 1.88732 15.5125 1.95486 16.0587 2.13869C16.6049 2.32252 17.1066 2.6186 17.5315 3.00788C17.9565 3.39716 18.2953 3.87103 18.5262 4.39905C18.7571 4.92707 18.8749 5.49756 18.8722 6.07385V15.4017C21.7109 15.0391 24.5841 15.0391 27.4228 15.4017V6.07385C27.4201 5.49756 27.5379 4.92707 27.7688 4.39905C27.9997 3.87103 28.3385 3.39716 28.7635 3.00788C29.1884 2.6186 29.6901 2.32252 30.2363 2.13869C30.7825 1.95486 31.3611 1.88732 31.9349 1.94043C32.5088 1.99354 33.0652 2.16611 33.5684 2.44706C34.0715 2.72802 34.5104 3.11113 34.8567 3.57179C35.2029 4.03244 35.449 4.56045 35.5791 5.12188C35.7092 5.68331 35.7203 6.26573 35.6119 6.83173L33.7269 16.937C39.689 19.1251 43.6766 23.1128 43.6766 27.6718C43.6766 34.5822 34.5081 40.1867 23.198 40.1867C11.8879 40.1867 2.71552 34.5822 2.71552 27.6718C2.71552 23.1361 6.66432 19.164 12.5759 16.9681L10.6831 6.83173Z" fill="#D1884F"/>
<path d="M17.5081 26.7464C17.5081 28.6315 16.4899 30.1589 15.2345 30.1589C13.9791 30.1589 12.9453 28.6315 12.9453 26.7464C12.9453 24.8614 13.9635 23.334 15.2228 23.334C16.4821 23.334 17.5081 24.8614 17.5081 26.7464Z" fill="#633001"/>
<path d="M33.2101 26.7464C33.2101 28.6315 32.1918 30.1589 30.9325 30.1589C29.6733 30.1589 28.6589 28.6315 28.6589 26.7464C28.6589 24.8614 29.6772 23.334 30.9325 23.334C32.1879 23.334 33.2101 24.8614 33.2101 26.7464Z" fill="#633001"/>
</g>
<defs>
<clipPath id="clip0_447_20508">
<rect width="291.497" height="45.0537" fill="white" transform="translate(0.89679 0.123047)"/>
</clipPath>
</defs>
</svg>
