<svg width="215" height="51" viewBox="0 0 215 51" fill="none" xmlns="http://www.w3.org/2000/svg">
<g clip-path="url(#clip0_447_20489)">
<path d="M53.6244 32.4936L43.0922 48.0297L43.0062 47.9437C39.2318 53.0335 27.0316 50.9271 15.5365 42.7679C4.12731 34.686 -2.45854 24.4203 0.791399 18.892L0.705421 18.806L11.2376 3.53647C14.8315 -1.73393 27.2122 0.372515 38.7933 8.53175C50.641 16.2611 57.0463 27.2318 53.6244 32.4936Z" fill="url(#paint0_linear_447_20489)"/>
<path fill-rule="evenodd" clip-rule="evenodd" d="M52.0424 31.6165C48.887 36.1819 37.6498 33.8949 26.937 26.3547C15.9749 18.8059 9.56964 9.23666 12.811 4.67127C15.9663 0.105881 27.2036 2.39287 37.9163 9.93307C48.6291 17.4733 55.0344 27.0511 52.0424 31.6165ZM42.0432 24.7727C40.4612 27.0511 34.9329 25.9162 29.4906 22.2278C24.2288 18.6254 21.0648 13.802 22.6468 11.5237C24.2288 9.24526 29.7571 10.3802 35.1994 14.0686C40.4612 17.6624 43.6166 22.4943 42.0432 24.7727Z" fill="white"/>
<path d="M77.7383 40.8493C75.2668 40.8493 72.7299 40.3851 70.1929 39.4501C67.656 38.5151 65.518 37.312 63.7853 35.782L67.8587 29.7078C69.258 30.9109 70.8599 31.9113 72.5991 32.6436C74.4037 33.3759 76.071 33.7093 77.6729 33.7093C79.0067 33.7093 80.1444 33.4413 81.0075 32.977C81.9425 32.5128 82.4067 31.8394 82.4067 31.0417C82.4067 30.7736 82.3413 30.5055 82.204 30.244C82.0732 30.0413 81.8705 29.7798 81.6025 29.6425C81.3344 29.4398 81.0009 29.309 80.7329 29.1063C80.334 28.9036 79.9352 28.7728 79.4644 28.6421C78.9283 28.5113 78.464 28.374 78.0652 28.2432C77.529 28.1125 76.9275 27.9098 76.3979 27.779C68.7937 25.9025 65.0538 22.4306 65.0538 17.2914C65.0538 14.3556 66.1914 11.9495 68.5257 10.2168C70.8599 8.41223 73.9329 7.54916 77.7383 7.54916C80.1379 7.54916 82.3413 7.88262 84.3486 8.61492C86.3559 9.34723 88.0167 10.2822 89.2851 11.4853L85.6171 17.6249C84.6167 16.7552 83.4136 16.0229 82.0144 15.4868C80.6152 14.9506 79.144 14.6891 77.6729 14.6891C76.4044 14.6891 75.3387 14.8918 74.5345 15.356C73.7368 15.8203 73.3314 16.3564 73.3314 17.0887C73.3314 17.821 73.7956 18.4225 74.7306 18.9587C75.6656 19.4229 76.9994 19.8937 78.6667 20.2925C79.2683 20.4233 79.7325 20.5606 80.2033 20.6914C80.674 20.8221 81.3409 21.0248 82.204 21.3583C83.0736 21.6264 83.8059 21.9598 84.5382 22.2933C85.2051 22.6267 86.0094 23.091 86.7417 23.6271C87.474 24.1633 88.1409 24.7648 88.677 25.4317C89.2132 26.0986 89.6774 26.9029 90.0109 27.7659C90.3443 28.7009 90.547 29.7013 90.547 30.7017C90.547 32.7024 89.9455 34.4416 88.8143 35.9716C87.6767 37.5082 86.1467 38.7112 84.2113 39.5089C82.2759 40.3785 80.0725 40.7774 77.6729 40.7774L77.7383 40.8493ZM113.046 38.1162C110.98 39.9208 108.24 40.8558 104.768 40.8558C101.362 40.8558 98.6285 39.9208 96.4904 38.1162C94.4243 36.2462 93.352 33.8466 93.352 30.7736V16.5526H100.897V29.7013C100.897 30.839 101.231 31.7674 101.963 32.5063C102.695 33.1732 103.63 33.572 104.768 33.572C105.906 33.572 106.834 33.2386 107.508 32.5063C108.24 31.8394 108.573 30.9044 108.573 29.7013V16.5526H116.119V30.7671C116.119 33.7682 115.053 36.2397 112.98 38.1097H113.046V38.1162ZM129.196 40.8493C125.39 40.8493 121.99 39.6462 118.852 37.312L122.186 32.5717C124.39 34.239 126.659 35.0432 128.927 35.0432C129.928 35.0432 130.732 34.9124 131.327 34.6443C131.929 34.3763 132.262 33.9774 132.262 33.4413C132.262 32.9051 131.929 32.5063 131.327 32.2382C130.726 31.9701 129.725 31.7021 128.391 31.4405C127.659 31.3097 127.123 31.1724 126.724 31.1071C126.188 30.9763 125.586 30.7736 125.057 30.6428C124.455 30.4401 123.919 30.244 123.324 29.9759C122.925 29.7078 122.454 29.4398 121.853 29.0409C121.389 28.7075 120.918 28.2432 120.584 27.7725C120.251 27.2363 119.983 26.7067 119.852 26.1052C119.649 25.3729 119.519 24.634 119.519 23.9017C119.519 22.2344 119.983 20.7633 120.918 19.5602C121.853 18.3572 123.056 17.4941 124.521 16.8926C126.057 16.3564 127.724 16.0229 129.594 16.0229C133.066 16.0229 136.335 17.0233 139.206 19.096L135.871 23.8363C133.733 22.5025 131.732 21.8356 129.862 21.8356C128.993 21.8356 128.326 21.9664 127.796 22.169C127.26 22.3717 126.999 22.7706 126.999 23.2348C126.999 23.699 127.332 24.1044 127.934 24.3725C128.535 24.6406 129.536 24.9086 130.869 25.1702C131.536 25.3009 132.072 25.4383 132.537 25.5036C133.001 25.6344 133.537 25.7717 134.204 25.9679C134.871 26.1706 135.407 26.4321 135.871 26.6348C136.335 26.9029 136.806 27.1709 137.342 27.5698C137.879 27.9686 138.277 28.3675 138.611 28.8382C138.944 29.309 139.212 29.904 139.409 30.5709C139.605 31.2378 139.742 31.9047 139.742 32.709C139.742 35.2459 138.742 37.2466 136.806 38.7178C134.806 40.117 132.334 40.8493 129.196 40.8493ZM157.494 15.9576C160.161 15.9576 162.3 16.7552 163.967 18.3572C165.634 19.9591 166.438 22.1625 166.438 24.8302V40.2477H158.893V27.3671C158.893 26.0986 158.56 25.0983 157.827 24.366C157.095 23.6337 156.16 23.2283 154.957 23.2283C153.623 23.2283 152.623 23.6271 151.818 24.366C151.021 25.1636 150.615 26.1706 150.615 27.439V40.2543H143.07V6.74494H150.622V18.756C152.427 16.886 154.695 15.9576 157.494 15.9576ZM174.781 13.9503C173.448 13.9503 172.382 13.486 171.512 12.6818C170.643 11.8122 170.178 10.6811 170.178 9.41261C170.178 8.07878 170.643 7.01301 171.512 6.14341C172.382 5.2738 173.448 4.80957 174.781 4.80957C176.115 4.80957 177.181 5.2738 178.051 6.14341C178.92 7.01301 179.384 8.14416 179.384 9.41261C179.384 10.6811 178.92 11.8122 178.051 12.6818C177.181 13.5514 176.122 13.9503 174.781 13.9503ZM171.048 40.2477V16.4872H178.593V40.2477H171.048Z" fill="white"/>
</g>
<defs>
<linearGradient id="paint0_linear_447_20489" x1="21.7305" y1="11.6221" x2="32.7889" y2="39.6193" gradientUnits="userSpaceOnUse">
<stop stop-color="#29AFE5"/>
<stop offset="0.3608" stop-color="#9181C3"/>
<stop offset="1" stop-color="#FA52A0"/>
</linearGradient>
<clipPath id="clip0_447_20489">
<rect width="214.943" height="50.0387" fill="white" transform="translate(0 0.630859)"/>
</clipPath>
</defs>
</svg>
