<svg width="18" height="18" viewBox="0 0 16 16" fill="none" xmlns="http://www.w3.org/2000/svg">
<path d="M3 3.625C3 3.45924 3.06585 3.30027 3.18306 3.18306C3.30027 3.06585 3.45924 3 3.625 3H6.125C6.29076 3 6.44973 3.06585 6.56694 3.18306C6.68415 3.30027 6.75 3.45924 6.75 3.625V6.125C6.75 6.29076 6.68415 6.44973 6.56694 6.56694C6.44973 6.68415 6.29076 6.75 6.125 6.75H3.625C3.45924 6.75 3.30027 6.68415 3.18306 6.56694C3.06585 6.44973 3 6.29076 3 6.125V3.625Z" stroke="#0029FF" stroke-width="0.7" stroke-linecap="round" stroke-linejoin="round"/>
<path d="M3 9.875C3 9.70924 3.06585 9.55027 3.18306 9.43306C3.30027 9.31585 3.45924 9.25 3.625 9.25H6.125C6.29076 9.25 6.44973 9.31585 6.56694 9.43306C6.68415 9.55027 6.75 9.70924 6.75 9.875V12.375C6.75 12.5408 6.68415 12.6997 6.56694 12.8169C6.44973 12.9342 6.29076 13 6.125 13H3.625C3.45924 13 3.30027 12.9342 3.18306 12.8169C3.06585 12.6997 3 12.5408 3 12.375V9.875Z" stroke="#0029FF" stroke-width="0.7" stroke-linecap="round" stroke-linejoin="round"/>
<path d="M9.25 9.875C9.25 9.70924 9.31585 9.55027 9.43306 9.43306C9.55027 9.31585 9.70924 9.25 9.875 9.25H12.375C12.5408 9.25 12.6997 9.31585 12.8169 9.43306C12.9342 9.55027 13 9.70924 13 9.875V12.375C13 12.5408 12.9342 12.6997 12.8169 12.8169C12.6997 12.9342 12.5408 13 12.375 13H9.875C9.70924 13 9.55027 12.9342 9.43306 12.8169C9.31585 12.6997 9.25 12.5408 9.25 12.375V9.875Z" stroke="#0029FF" stroke-width="0.7" stroke-linecap="round" stroke-linejoin="round"/>
<path d="M9.25 4.875H13" stroke="#0029FF" stroke-width="0.7" stroke-linecap="round" stroke-linejoin="round"/>
<path d="M11.125 3V6.75" stroke="#0029FF" stroke-width="0.7" stroke-linecap="round" stroke-linejoin="round"/>
</svg>
