<svg width="36" height="36" viewBox="0 0 36 36" fill="none" xmlns="http://www.w3.org/2000/svg">
<path d="M19 10.6191C19 12.3746 19.6974 14.0582 20.9387 15.2996C22.1801 16.5409 23.8637 17.2383 25.6191 17.2383C27.3745 17.2383 29.0582 16.5409 30.2995 15.2996C31.5408 14.0582 32.2383 12.3746 32.2383 10.6191C32.2383 8.86363 31.5408 7.18003 30.2995 5.9387C29.0582 4.69737 27.3745 4 25.6191 4C23.8637 4 22.1801 4.69737 20.9387 5.9387C19.6974 7.18003 19 8.86363 19 10.6191Z" fill="#00D622"/>
<path d="M13.6875 32.625C13.878 33.2741 14.2736 33.8439 14.8151 34.2492C15.3565 34.6546 16.0149 34.8738 16.6912 34.8738C17.3676 34.8738 18.0259 34.6546 18.5673 34.2492C19.1088 33.8439 19.5045 33.2741 19.695 32.625" stroke="#0029FF" stroke-width="1.4" stroke-linecap="round" stroke-linejoin="round"/>
<path d="M16.6875 4.5V1.125" stroke="#0029FF" stroke-width="1.4" stroke-linecap="round" stroke-linejoin="round"/>
<path d="M27.972 17.9413C28.2555 26.5753 30.1875 28.1248 30.1875 28.1248H3.1875C3.1875 28.1248 5.4375 25.2508 5.4375 15.7498C5.43918 13.9873 5.85455 12.2499 6.65016 10.6772C7.44578 9.10456 8.59944 7.74063 10.0183 6.69514C11.4372 5.64967 13.0816 4.95184 14.8194 4.65781C16.5571 4.36378 18.3396 4.48176 20.0235 5.00226" stroke="#0029FF" stroke-width="1.4" stroke-linecap="round" stroke-linejoin="round"/>
<path d="M24.3255 13.0672C24.0193 13.0672 23.7524 12.9925 23.5247 12.8432C23.3007 12.6939 23.1271 12.4829 23.0039 12.2104C22.8807 11.9379 22.8191 11.6168 22.8191 11.2472C22.8191 10.9187 22.862 10.6051 22.9479 10.3064C23.0337 10.0077 23.1588 9.74267 23.3231 9.5112C23.4873 9.27973 23.6852 9.0968 23.9167 8.9624C24.1519 8.828 24.4169 8.7608 24.7119 8.7608C25.0217 8.7608 25.2887 8.83547 25.5127 8.9848C25.7404 9.13413 25.9159 9.34507 26.0391 9.6176C26.1623 9.89013 26.2239 10.2093 26.2239 10.5752C26.2239 10.9037 26.1809 11.2192 26.0951 11.5216C26.0092 11.8203 25.8841 12.0853 25.7199 12.3168C25.5556 12.5483 25.3559 12.7312 25.1207 12.8656C24.8855 13 24.6204 13.0672 24.3255 13.0672ZM24.3479 12.2832C24.5383 12.2832 24.6988 12.2272 24.8295 12.1152C24.9601 11.9995 25.0628 11.852 25.1375 11.6728C25.2159 11.4936 25.2719 11.3051 25.3055 11.1072C25.3391 10.9056 25.3559 10.7189 25.3559 10.5472C25.3559 10.2261 25.2999 9.97973 25.1879 9.808C25.0759 9.63253 24.9097 9.5448 24.6895 9.5448C24.5177 9.5448 24.3684 9.5952 24.2415 9.696C24.1145 9.7968 24.01 9.9312 23.9279 10.0992C23.8457 10.2635 23.7841 10.4483 23.7431 10.6536C23.7057 10.8552 23.6871 11.0605 23.6871 11.2696C23.6871 11.4824 23.7113 11.6653 23.7599 11.8184C23.8121 11.9677 23.8868 12.0835 23.9839 12.1656C24.0809 12.244 24.2023 12.2832 24.3479 12.2832ZM27.1428 13L27.6244 9.5616H26.8236L26.9244 8.828H28.6044L28.022 13H27.1428Z" fill="white"/>
</svg>
