<svg width="24" height="24" viewBox="0 0 24 24" fill="none" xmlns="http://www.w3.org/2000/svg">
<g clip-path="url(#clip0_940_717)">
<path d="M0.75 12C0.75 14.9837 1.93526 17.8452 4.04505 19.955C6.15483 22.0647 9.01631 23.25 12 23.25C14.9837 23.25 17.8452 22.0647 19.955 19.955C22.0647 17.8452 23.25 14.9837 23.25 12C23.25 9.01631 22.0647 6.15483 19.955 4.04505C17.8452 1.93526 14.9837 0.75 12 0.75C9.01631 0.75 6.15483 1.93526 4.04505 4.04505C1.93526 6.15483 0.75 9.01631 0.75 12Z" stroke="#0029FF" stroke-linecap="round" stroke-linejoin="round"/>
<path d="M6.75 11.125C6.75 12.2853 7.21094 13.3981 8.03141 14.2186C8.85188 15.0391 9.96468 15.5 11.125 15.5C12.2853 15.5 13.3981 15.0391 14.2186 14.2186C15.0391 13.3981 15.5 12.2853 15.5 11.125C15.5 9.96468 15.0391 8.85188 14.2186 8.03141C13.3981 7.21094 12.2853 6.75 11.125 6.75C9.96468 6.75 8.85188 7.21094 8.03141 8.03141C7.21094 8.85188 6.75 9.96468 6.75 11.125Z" stroke="#0029FF" stroke-linecap="round" stroke-linejoin="round"/>
<path d="M14.2188 14.2188L17.2498 17.2507" stroke="#0029FF" stroke-linecap="round" stroke-linejoin="round"/>
</g>
<defs>
<clipPath id="clip0_940_717">
<rect width="24" height="24" fill="white"/>
</clipPath>
</defs>
</svg>
