<svg width="45" height="45" viewBox="0 0 45 45" fill="none" xmlns="http://www.w3.org/2000/svg">
<path d="M33.1833 9.33439H35.0166V11.1677C35.0166 11.654 35.2098 12.1203 35.5536 12.4641C35.8974 12.8079 36.3637 13.0011 36.8499 13.0011C37.3362 13.0011 37.8025 12.8079 38.1463 12.4641C38.4901 12.1203 38.6833 11.654 38.6833 11.1677V9.33439H40.5166C41.0028 9.33439 41.4692 9.14124 41.813 8.79742C42.1568 8.4536 42.3499 7.98729 42.3499 7.50106C42.3499 7.01483 42.1568 6.54851 41.813 6.2047C41.4692 5.86088 41.0028 5.66773 40.5166 5.66773H38.6833V3.83439C38.6833 3.34816 38.4901 2.88185 38.1463 2.53803C37.8025 2.19421 37.3362 2.00106 36.8499 2.00106C36.3637 2.00106 35.8974 2.19421 35.5536 2.53803C35.2098 2.88185 35.0166 3.34816 35.0166 3.83439V5.66773H33.1833C32.697 5.66773 32.2307 5.86088 31.8869 6.2047C31.5431 6.54851 31.3499 7.01483 31.3499 7.50106C31.3499 7.98729 31.5431 8.4536 31.8869 8.79742C32.2307 9.14124 32.697 9.33439 33.1833 9.33439ZM13.0166 13.0011V31.3344C13.0166 31.8206 13.2098 32.2869 13.5536 32.6308C13.8974 32.9746 14.3637 33.1677 14.8499 33.1677C15.3362 33.1677 15.8025 32.9746 16.1463 32.6308C16.4901 32.2869 16.6833 31.8206 16.6833 31.3344V13.0011C16.6833 12.5148 16.4901 12.0485 16.1463 11.7047C15.8025 11.3609 15.3362 11.1677 14.8499 11.1677C14.3637 11.1677 13.8974 11.3609 13.5536 11.7047C13.2098 12.0485 13.0166 12.5148 13.0166 13.0011ZM39.7833 16.6677C39.5473 16.7158 39.3231 16.81 39.1236 16.9447C38.924 17.0795 38.7529 17.2522 38.6201 17.4531C38.4873 17.654 38.3954 17.8791 38.3496 18.1156C38.3038 18.352 38.3051 18.5951 38.3533 18.8311C39.0691 22.3074 38.6448 25.922 37.1435 29.1381C35.6422 32.3542 33.1438 35.0005 30.0192 36.6842C26.8946 38.3678 23.3104 38.999 19.7987 38.4841C16.2869 37.9692 13.0348 36.3357 10.525 33.826C8.01531 31.3162 6.38175 28.0641 5.86685 24.5523C5.35196 21.0406 5.98318 17.4564 7.66682 14.3318C9.35045 11.2072 11.9968 8.70885 15.2129 7.20751C18.429 5.70617 22.0436 5.28192 25.5199 5.99773C26.0062 6.09497 26.5111 5.99508 26.9237 5.72003C27.3363 5.44497 27.6227 5.01729 27.7199 4.53106C27.8172 4.04483 27.7173 3.53988 27.4422 3.1273C27.1672 2.71472 26.7395 2.4283 26.2533 2.33106C24.9116 2.08109 23.5477 1.9705 22.1833 2.00106C18.1947 2.00106 14.2957 3.18381 10.9793 5.39975C7.66289 7.6157 5.07807 10.7653 3.55171 14.4503C2.02534 18.1353 1.62597 22.1901 2.40411 26.102C3.18224 30.014 5.10293 33.6074 7.92329 36.4277C10.7436 39.2481 14.337 41.1688 18.249 41.9469C22.1609 42.725 26.2157 42.3257 29.9007 40.7993C33.5857 39.2729 36.7353 36.6881 38.9512 33.3717C41.1672 30.0553 42.3499 26.1563 42.3499 22.1677C42.3538 20.813 42.2187 19.4615 41.9466 18.1344C41.9027 17.8951 41.8116 17.667 41.6787 17.4633C41.5457 17.2596 41.3735 17.0844 41.1722 16.9479C40.9708 16.8114 40.7443 16.7163 40.5059 16.6682C40.2674 16.6201 40.0218 16.6199 39.7833 16.6677ZM20.3499 16.6677V18.5011C20.358 19.8578 20.8673 21.1637 21.7799 22.1677C20.8673 23.1717 20.358 24.4776 20.3499 25.8344V27.6677C20.3499 29.1264 20.9294 30.5254 21.9609 31.5568C22.9923 32.5883 24.3913 33.1677 25.8499 33.1677H27.6833C29.142 33.1677 30.5409 32.5883 31.5724 31.5568C32.6038 30.5254 33.1833 29.1264 33.1833 27.6677V25.8344C33.1752 24.4776 32.6659 23.1717 31.7533 22.1677C32.6659 21.1637 33.1752 19.8578 33.1833 18.5011V16.6677C33.1833 15.209 32.6038 13.8101 31.5724 12.7786C30.5409 11.7472 29.142 11.1677 27.6833 11.1677H25.8499C24.3913 11.1677 22.9923 11.7472 21.9609 12.7786C20.9294 13.8101 20.3499 15.209 20.3499 16.6677ZM29.5166 27.6677C29.5166 28.154 29.3235 28.6203 28.9796 28.9641C28.6358 29.3079 28.1695 29.5011 27.6833 29.5011H25.8499C25.3637 29.5011 24.8974 29.3079 24.5536 28.9641C24.2098 28.6203 24.0166 28.154 24.0166 27.6677V25.8344C24.0166 25.3482 24.2098 24.8818 24.5536 24.538C24.8974 24.1942 25.3637 24.0011 25.8499 24.0011H27.6833C28.1695 24.0011 28.6358 24.1942 28.9796 24.538C29.3235 24.8818 29.5166 25.3482 29.5166 25.8344V27.6677ZM29.5166 16.6677V18.5011C29.5166 18.9873 29.3235 19.4536 28.9796 19.7974C28.6358 20.1412 28.1695 20.3344 27.6833 20.3344H25.8499C25.3637 20.3344 24.8974 20.1412 24.5536 19.7974C24.2098 19.4536 24.0166 18.9873 24.0166 18.5011V16.6677C24.0166 16.1815 24.2098 15.7152 24.5536 15.3714C24.8974 15.0275 25.3637 14.8344 25.8499 14.8344H27.6833C28.1695 14.8344 28.6358 15.0275 28.9796 15.3714C29.3235 15.7152 29.5166 16.1815 29.5166 16.6677Z" fill="white"/>
</svg>
