<svg width="209" height="38" viewBox="0 0 209 38" fill="none" xmlns="http://www.w3.org/2000/svg">
<path d="M23.4065 29.0073L18.7834 31.2787V14.2255L23.4065 11.9542V29.0073ZM29.6826 25.9248L25.0595 28.1961V11.143L29.6826 8.87162V25.9248ZM31.3357 25.1136V8.06042L35.9588 5.78906V22.8422L31.3357 25.1136Z" fill="white"/>
<path d="M17.1663 26.6819V31.2697L0 22.8422V18.2545L17.1663 26.6819ZM17.1663 20.4447V25.0325L0 16.605V12.0173L17.1663 20.4447ZM17.1663 14.2165V18.8043L0 10.3768V5.78906L17.1663 14.2165Z" fill="#FF9500"/>
<path d="M46.8764 0.385742V26.7219H60.3517C66.6724 26.7219 70.7106 23.8689 70.7106 19.3478C70.7106 16.0119 68.6476 13.3783 65.3995 12.7199C68.1209 11.9298 69.8766 9.69123 69.8766 7.05761C69.8766 3.01939 65.9262 0.429679 59.7811 0.429679H46.8764V0.385742ZM54.6455 6.2675H59.3861C60.9223 6.2675 61.888 7.10148 61.888 8.46218C61.888 9.86678 60.9223 10.7447 59.3861 10.7447H54.6455V6.2675ZM54.6455 16.0558H59.3861C61.3613 16.0558 62.6342 16.9336 62.6342 18.3821C62.6342 19.9184 61.4052 20.8841 59.3861 20.8841H54.6455V16.0558Z" fill="#FF9500"/>
<path d="M83.2208 0.385742H75.4077V26.7219H83.2208V0.385742Z" fill="#FF9500"/>
<path d="M108.198 6.61867V0.385742H87.9629V6.61867H94.1519V26.7219H102.009V6.61867H108.198Z" fill="#FF9500"/>
<path d="M125.118 0.166016C116.953 0.166016 110.94 5.82831 110.94 13.5097C110.94 21.2789 116.822 27.0728 124.854 27.0728C128.849 27.0728 133.15 25.0976 136.003 21.9812L131.482 17.1529C129.683 18.9964 127.225 20.1816 125.205 20.1816C121.65 20.1816 118.929 17.2407 118.929 13.378C118.929 9.5154 121.65 6.61841 125.205 6.61841C127.4 6.61841 129.814 8.02301 131.482 10.1299L136.003 4.81878C133.326 1.9657 129.068 0.166016 125.118 0.166016Z" fill="#FF9500"/>
<path d="M152.288 0.166016C144.036 0.166016 137.934 5.7844 137.934 13.5536C137.934 21.3228 144.036 27.0728 152.288 27.0728C160.54 27.0728 166.641 21.2789 166.641 13.5536C166.641 5.8283 160.54 0.166016 152.288 0.166016ZM152.419 6.70618C155.887 6.70618 158.652 9.60319 158.652 13.5975C158.652 17.5918 155.887 20.5327 152.419 20.5327C148.952 20.5327 145.967 17.5479 145.967 13.5975C145.967 9.64709 148.908 6.70618 152.419 6.70618Z" fill="#FF9500"/>
<path d="M178.887 0.385742H171.074V26.7219H178.887V0.385742Z" fill="#FF9500"/>
<path d="M208.577 26.7219V0.385742H201.422V15.0901L190.273 0.385742H183.602V26.7219H190.756V12.0615L201.905 26.7219H208.577Z" fill="#FF9500"/>
<path d="M54.3272 37.9033V31.3457H52.0231L50.58 34.7638L49.1368 31.3457H46.8328V37.9033H48.7317V34.308L49.8457 37.2703H51.2636L52.3776 34.308V37.9033H54.3272Z" fill="white"/>
<path d="M60.0992 36.9919L60.4284 37.9287H62.7324L60.0739 31.3711H57.8459L55.0861 37.9287H57.3142L57.6433 36.9919H60.0992ZM59.5675 35.4221H58.2003L58.8839 33.4979L59.5675 35.4221Z" fill="white"/>
<path d="M67.5437 34.4597V35.9789C67.2145 36.1055 66.9107 36.2067 66.6829 36.2067C65.822 36.2067 65.2144 35.5484 65.2144 34.637C65.2144 33.7508 65.822 33.0925 66.6829 33.0925C67.2145 33.0925 67.8728 33.371 68.3032 33.7761L69.5186 32.2823C68.8096 31.6746 67.6956 31.2695 66.6829 31.2695C64.5307 31.2695 62.9863 32.6874 62.9863 34.6116C62.9863 36.5612 64.4801 37.979 66.5309 37.979C67.4677 37.979 68.683 37.6246 69.392 37.1435V34.4344H67.5437V34.4597Z" fill="white"/>
<path d="M75.0372 36.9919L75.3664 37.9287H77.6704L75.0119 31.3711H72.7838L70.0241 37.9287H72.2522L72.5813 36.9919H75.0372ZM74.5055 35.4221H73.1383L73.8219 33.4979L74.5055 35.4221Z" fill="white"/>
<path d="M84.1022 32.7129V31.3457H78.2536V33.0167H81.1905L78.127 36.5614V37.9286H84.1529V36.2576H81.0386L84.1022 32.7129Z" fill="white"/>
<path d="M87.3682 31.3457H85.1908V37.9033H87.3682V31.3457Z" fill="white"/>
<path d="M95.0397 37.9033V31.3457H93.0901V34.7131L90.5076 31.3457H88.6846V37.9033H90.6595V34.5612L93.242 37.9033H95.0397Z" fill="white"/>
<path d="M101.902 32.9914V31.3457H96.357V37.9033H102.003V36.2576H98.5344V35.4474H101.598V33.8016H98.5344V32.9914H101.902Z" fill="white"/>
</svg>
