<svg width="210" height="50" viewBox="0 0 210 50" fill="none" xmlns="http://www.w3.org/2000/svg">
<path d="M30.91 36.1122L22.2084 39.9061V39.5232C20.5377 39.9409 18.6582 40.1845 16.9179 40.289C8.70361 40.2193 2.22964 35.9034 2.12522 30.8216V28.9421C4.80531 32.8404 10.3047 35.4857 16.9179 35.3813C19.1455 35.4857 21.4427 35.1376 23.357 34.6155L24.1228 32.736C21.8604 33.4321 19.3543 33.8846 16.9179 33.8846C8.70361 33.8846 2.22964 29.6034 2.12522 24.4173V22.8858C4.80531 26.5057 10.3047 29.1161 16.9179 28.9421C19.9112 29.1161 22.8001 28.4896 25.2714 27.4106L25.6542 25.5311C23.2526 26.7841 20.1549 27.5151 16.9527 27.4106C8.73841 27.5151 2.26445 23.2339 2.16003 17.9433V16.4119C4.84011 20.1013 10.3395 22.7466 16.9527 22.851C20.7118 22.7466 24.262 21.7372 27.1857 20.2057L27.5686 17.9433C24.9233 19.8925 21.0598 21.1803 16.9527 21.3544C8.73841 21.1803 2.26445 16.8643 2.16003 11.5042C2.22964 6.38766 8.73841 2.1065 16.9527 2.03689C21.8256 2.1065 26.3852 3.81201 29.0653 6.59651L29.3437 7.04899H31.2581L30.9796 6.59651C28.2995 2.94185 22.9046 0.540221 16.9527 0.540221C7.83345 0.505414 0.59375 5.48271 0.59375 11.4694V11.8522V31.1697C0.907006 37.0172 7.97267 41.7856 16.8831 41.7856C22.7653 41.8204 28.0907 39.4884 30.91 36.1122Z" fill="white"/>
<path d="M27.3592 49.4422L30.4221 36.4246L21.6161 40.2533L26.9763 17.6989H16.6736L19.3537 6.5957H52.2456L49.5655 17.6989H38.8452L36.548 23.8248L48.4169 18.8475L27.3592 49.4422ZM32.7193 33.7794L31.1878 41.4367L43.8225 22.3281L33.4851 26.9225L38.0795 16.2022H48.4169L50.3313 8.16198H20.4675L18.5532 16.2022H28.8906L23.9133 37.6081L32.7193 33.7794Z" fill="#FABF2C"/>
<path d="M74.0691 14.0801C74.1039 15.2983 73.7211 16.2381 72.9553 16.9342C72.1896 17.6303 71.1454 17.9784 69.788 17.9784C68.4305 17.9784 67.3167 17.5259 66.4814 16.6557C65.646 15.7856 65.2283 14.637 65.2283 13.2447V10.9823C65.2283 9.59007 65.646 8.44146 66.4466 7.57131C67.2819 6.70115 68.3609 6.24868 69.6835 6.24868C71.0758 6.24868 72.1548 6.59674 72.9553 7.25805C73.7559 7.95418 74.1387 8.89394 74.1039 10.1122V10.147H71.8763C71.8763 9.41604 71.7023 8.85914 71.3542 8.51108C71.0062 8.16302 70.4493 7.98899 69.7183 7.98899C69.0222 7.98899 68.5001 8.26744 68.1173 8.82434C67.7344 9.38124 67.5255 10.0774 67.5255 10.9475V13.2447C67.5255 14.1149 67.7344 14.8458 68.1173 15.4027C68.5349 15.9596 69.0918 16.2381 69.8228 16.2381C70.5189 16.2381 71.0062 16.064 71.3542 15.716C71.7023 15.3679 71.8763 14.811 71.8763 14.0801H74.0691ZM86.669 13.1403C86.669 14.5326 86.2165 15.716 85.3463 16.6209C84.4762 17.5259 83.3276 17.9784 81.9005 17.9784C80.4735 17.9784 79.3597 17.5259 78.4547 16.6209C77.5845 15.716 77.1321 14.5326 77.1321 13.1403V11.0867C77.1321 9.69449 77.5845 8.54589 78.4547 7.60612C79.3249 6.70115 80.4735 6.21387 81.8657 6.21387C83.2928 6.21387 84.4414 6.66635 85.3115 7.60612C86.2165 8.51108 86.6342 9.69449 86.6342 11.0867V13.1403H86.669ZM84.3718 11.0519C84.3718 10.147 84.1629 9.45085 83.7104 8.85914C83.258 8.30224 82.6663 7.98899 81.8657 7.98899C81.1 7.98899 80.4735 8.26744 80.0558 8.85914C79.6381 9.41604 79.3945 10.147 79.3945 11.0519V13.1055C79.3945 14.0105 79.6033 14.7414 80.0558 15.3331C80.4735 15.89 81.1 16.2033 81.8657 16.2033C82.6663 16.2033 83.258 15.9248 83.7104 15.3331C84.1629 14.7762 84.3718 14.0105 84.3718 13.1055V11.0519ZM92.586 17.8043H90.2888V6.3879H92.586V17.8043ZM105.778 17.8043H103.48L98.886 10.1122H98.8512V17.8043H96.554V6.3879H98.8512L103.446 14.0801H103.48V6.3879H105.778V17.8043ZM117.298 8.16302H114.027V17.8043H111.729V8.16302H108.527V6.3879H117.298V8.16302ZM126.766 12.7922H122.519V16.064H127.566V17.8043H120.257V6.3879H127.566V8.16302H122.554V11.0171H126.801V12.7922H126.766ZM133.135 16.064H138.252V17.8043H130.838V6.3879H133.135V16.064ZM147.998 12.7922H143.751V16.064H148.798V17.8043H141.489V6.3879H148.798V8.16302H143.786V11.0171H148.032V12.7922H147.998ZM160.841 16.2729C160.493 16.7254 159.971 17.143 159.24 17.4911C158.544 17.8392 157.639 18.0132 156.525 18.0132C155.133 18.0132 154.019 17.5955 153.149 16.7253C152.279 15.8552 151.826 14.7414 151.826 13.3491V10.9475C151.826 9.55527 152.244 8.44146 153.114 7.57131C153.949 6.70115 155.063 6.24868 156.386 6.24868C157.778 6.24868 158.857 6.59674 159.588 7.25805C160.319 7.91937 160.702 8.78953 160.667 9.90333V9.93813H158.509C158.509 9.34642 158.335 8.85914 157.987 8.51108C157.639 8.16302 157.117 7.98899 156.455 7.98899C155.759 7.98899 155.202 8.26743 154.75 8.78953C154.332 9.34643 154.123 10.0426 154.123 10.8779V13.2795C154.123 14.1497 154.332 14.8458 154.785 15.4027C155.237 15.9596 155.829 16.2033 156.56 16.2033C157.117 16.2033 157.534 16.1336 157.848 16.0292C158.161 15.9248 158.405 15.7856 158.579 15.6116V13.384H156.386V11.7829H160.876V16.2729H160.841ZM166.758 13.2447V17.8043H164.461V6.3879H168.429C169.717 6.3879 170.761 6.70116 171.492 7.29286C172.223 7.88457 172.606 8.71991 172.606 9.7641C172.606 10.3558 172.466 10.8431 172.153 11.2956C171.84 11.7133 171.387 12.0613 170.796 12.3398C171.457 12.5486 171.944 12.8619 172.258 13.3491C172.536 13.8016 172.71 14.3933 172.71 15.0895V15.9248C172.71 16.2381 172.745 16.5861 172.849 16.9342C172.919 17.2822 173.093 17.5259 173.302 17.6999V17.874H170.935C170.726 17.6999 170.587 17.4215 170.517 17.0386C170.448 16.6557 170.413 16.2729 170.413 15.9248V15.1243C170.413 14.5674 170.274 14.1149 169.96 13.8016C169.647 13.4884 169.195 13.3143 168.638 13.3143H166.758V13.2447ZM166.758 11.5044H168.394C169.021 11.5044 169.508 11.3652 169.821 11.0867C170.134 10.8083 170.308 10.4254 170.308 9.86852C170.308 9.34643 170.134 8.92875 169.821 8.6155C169.508 8.30224 169.055 8.16302 168.429 8.16302H166.758V11.5044ZM182.317 15.3679H178.627L177.861 17.8392H175.46L179.323 6.42271H181.655L185.484 17.8392H183.082L182.317 15.3679ZM179.184 13.558H181.76L180.507 9.52046H180.472L179.184 13.558ZM190.566 13.6624V17.8043H188.268V6.3879H192.654C193.977 6.3879 194.986 6.73596 195.752 7.39728C196.517 8.0586 196.866 8.96356 196.866 10.0426C196.866 11.1215 196.483 12.0265 195.752 12.6878C194.986 13.3491 193.977 13.6972 192.654 13.6972H190.566V13.6624ZM190.566 11.9221H192.654C193.281 11.9221 193.768 11.7481 194.116 11.4C194.429 11.0519 194.603 10.5995 194.603 10.0774C194.603 9.52046 194.429 9.06797 194.116 8.71991C193.803 8.37185 193.315 8.19782 192.654 8.19782H190.566V11.9221ZM209.431 17.8043H207.133V13.0707H202.469V17.8043H200.172V6.3879H202.469V11.2956H207.133V6.3879H209.431V17.8043Z" fill="white"/>
<path d="M69.4053 36.4605H67.9782V28.9424H65.4026V27.7242H71.981V28.9424H69.4053V36.4605ZM78.977 36.4605H77.55V32.3882C77.55 31.8661 77.4455 31.4832 77.2367 31.2396C77.0279 30.996 76.7146 30.8567 76.2621 30.8567C75.6704 30.8567 75.2528 31.0308 74.9743 31.3788C74.6959 31.7269 74.5566 32.3186 74.5566 33.1539V36.4257H73.1644V27.1325H74.5566V29.4993C74.5566 29.8822 74.5218 30.265 74.487 30.7175H74.5914C74.7655 30.4042 75.0439 30.1606 75.392 29.9866C75.74 29.8125 76.1229 29.7081 76.5754 29.7081C78.1765 29.7081 78.977 30.5087 78.977 32.1446V36.4605ZM83.8151 36.5649C82.7709 36.5649 81.9704 36.2517 81.4135 35.66C80.8218 35.0683 80.5433 34.2329 80.5433 33.1887C80.5433 32.1098 80.8218 31.2744 81.3438 30.6479C81.8659 30.0214 82.6317 29.7081 83.5714 29.7081C84.4416 29.7081 85.1377 29.9866 85.625 30.5087C86.1471 31.0308 86.3908 31.7617 86.3908 32.7015V33.4672H81.9704C82.0052 34.0937 82.1792 34.6158 82.4925 34.9291C82.8057 35.2771 83.293 35.4512 83.8847 35.4512C84.2676 35.4512 84.6504 35.4163 84.9637 35.3467C85.3118 35.2771 85.6598 35.1379 86.0427 34.9639V36.1125C85.6946 36.2865 85.3466 36.3909 84.9985 36.4605C84.6852 36.5301 84.2676 36.5649 83.8151 36.5649ZM83.5714 30.7871C83.119 30.7871 82.7709 30.9263 82.4925 31.2048C82.214 31.4832 82.0748 31.9009 82.0052 32.4578H84.9985C84.9985 31.9009 84.8593 31.4832 84.6156 31.2048C84.372 30.9263 84.0239 30.7871 83.5714 30.7871ZM94.4658 30.8915H92.8647V36.4605H91.4377V30.8915H90.3587V30.2302L91.4377 29.8125V29.3949C91.4377 28.6291 91.6117 28.0374 91.9946 27.6546C92.3774 27.2717 92.9343 27.0977 93.6653 27.0977C94.1525 27.0977 94.6398 27.1673 95.1271 27.3413L94.7443 28.4203C94.3962 28.3159 94.0829 28.2463 93.7349 28.2463C93.4216 28.2463 93.178 28.3507 93.0387 28.5247C92.8995 28.7336 92.8299 29.012 92.8299 29.3949V29.8125H94.431V30.8915H94.4658ZM100.278 36.4605L100.07 35.5904H100C99.7912 35.9036 99.5127 36.1473 99.1646 36.3213C98.8166 36.4953 98.3989 36.5998 97.9464 36.5998C97.1459 36.5998 96.5542 36.3909 96.1365 36.0081C95.7188 35.6252 95.5448 34.9987 95.5448 34.1981V29.8473H96.9719V33.9197C96.9719 34.4418 97.0763 34.7898 97.2851 35.0683C97.4939 35.3119 97.8072 35.4512 98.2597 35.4512C98.8514 35.4512 99.2691 35.2771 99.5475 34.9291C99.826 34.581 99.9652 33.9893 99.9652 33.1539V29.8473H101.392V36.4605H100.278ZM105.847 35.4163C106.196 35.4163 106.544 35.3467 106.892 35.2423V36.2865C106.752 36.3561 106.544 36.4257 106.3 36.4605C106.056 36.4953 105.813 36.5302 105.534 36.5302C104.212 36.5302 103.55 35.834 103.55 34.4418V30.8915H102.645V30.265L103.62 29.7429L104.107 28.3507H104.977V29.8125H106.857V30.8915H104.977V34.4418C104.977 34.7898 105.047 35.0335 105.221 35.2075C105.325 35.3467 105.569 35.4163 105.847 35.4163ZM112.844 36.4605L112.635 35.5904H112.565C112.356 35.9036 112.078 36.1473 111.73 36.3213C111.382 36.4953 110.964 36.5998 110.511 36.5998C109.711 36.5998 109.119 36.3909 108.702 36.0081C108.319 35.6252 108.11 34.9987 108.11 34.1981V29.8473H109.537V33.9197C109.537 34.4418 109.641 34.7898 109.85 35.0683C110.059 35.3119 110.372 35.4512 110.825 35.4512C111.416 35.4512 111.834 35.2771 112.113 34.9291C112.391 34.581 112.53 33.9893 112.53 33.1539V29.8473H113.957V36.4605H112.844ZM119.317 29.7081C119.596 29.7081 119.84 29.7429 120.014 29.7777L119.874 31.1004C119.666 31.0656 119.457 31.0308 119.248 31.0308C118.691 31.0308 118.238 31.2048 117.89 31.5877C117.542 31.9705 117.368 32.423 117.368 33.0147V36.4605H115.976V29.8473H117.09L117.264 30.9959H117.334C117.542 30.6131 117.856 30.2998 118.204 30.0562C118.517 29.8473 118.9 29.7081 119.317 29.7081ZM123.877 36.5649C122.833 36.5649 122.032 36.2517 121.475 35.66C120.884 35.0683 120.605 34.2329 120.605 33.1887C120.605 32.1098 120.884 31.2744 121.406 30.6479C121.928 30.0214 122.694 29.7081 123.633 29.7081C124.504 29.7081 125.2 29.9866 125.687 30.5087C126.209 31.0308 126.453 31.7617 126.453 32.7015V33.4672H122.032C122.067 34.0937 122.241 34.6158 122.554 34.9291C122.868 35.2771 123.355 35.4512 123.947 35.4512C124.33 35.4512 124.712 35.4163 125.026 35.3467C125.374 35.2771 125.722 35.1379 126.105 34.9639V36.1125C125.757 36.2865 125.409 36.3909 125.06 36.4605C124.712 36.5301 124.33 36.5649 123.877 36.5649ZM123.633 30.7871C123.181 30.7871 122.833 30.9263 122.554 31.2048C122.276 31.4832 122.137 31.9009 122.067 32.4578H125.06C125.06 31.9009 124.921 31.4832 124.678 31.2048C124.399 30.9263 124.051 30.7871 123.633 30.7871ZM137.069 33.1191C137.069 34.1981 136.79 35.0335 136.233 35.66C135.676 36.2517 134.911 36.5649 133.936 36.5649C133.31 36.5649 132.787 36.4257 132.3 36.1473C131.813 35.8688 131.465 35.4512 131.221 34.9291C130.978 34.407 130.838 33.8153 130.838 33.1191C130.838 32.0401 131.117 31.2048 131.674 30.6131C132.231 30.0214 132.996 29.7081 134.006 29.7081C134.945 29.7081 135.711 30.0214 136.268 30.6479C136.825 31.2744 137.069 32.0749 137.069 33.1191ZM132.265 33.1191C132.265 34.6506 132.822 35.4163 133.971 35.4163C135.085 35.4163 135.642 34.6506 135.642 33.1191C135.642 31.6225 135.085 30.8567 133.971 30.8567C133.379 30.8567 132.962 31.0656 132.683 31.4484C132.405 31.8313 132.265 32.3882 132.265 33.1191ZM142.011 30.8915H140.41V36.4605H138.983V30.8915H137.904V30.2302L138.983 29.8125V29.3949C138.983 28.6291 139.157 28.0374 139.54 27.6546C139.923 27.2717 140.48 27.0977 141.211 27.0977C141.698 27.0977 142.185 27.1673 142.672 27.3413L142.29 28.4203C141.942 28.3159 141.628 28.2463 141.28 28.2463C140.967 28.2463 140.723 28.3507 140.584 28.5247C140.445 28.6987 140.375 29.012 140.375 29.3949V29.8125H141.976V30.8915H142.011ZM151.896 36.4605H150.469V32.3882C150.469 31.8661 150.365 31.518 150.191 31.2396C150.017 30.996 149.703 30.8567 149.286 30.8567C148.729 30.8567 148.346 31.0308 148.102 31.3788C147.859 31.7269 147.719 32.3186 147.719 33.1539V36.4605H146.327V29.8473H147.441L147.65 30.7175H147.719C147.893 30.4042 148.172 30.1606 148.52 29.9866C148.868 29.8125 149.251 29.7429 149.669 29.7429C150.678 29.7429 151.374 30.091 151.687 30.7871H151.792C152.001 30.4739 152.279 30.1954 152.627 30.0214C152.975 29.8473 153.393 29.7429 153.845 29.7429C154.646 29.7429 155.203 29.9518 155.586 30.3346C155.934 30.7175 156.142 31.344 156.142 32.1446V36.4605H154.75V32.3882C154.75 31.8661 154.646 31.518 154.472 31.2396C154.263 30.996 153.984 30.8567 153.567 30.8567C153.01 30.8567 152.627 31.0308 152.383 31.3788C152.14 31.7269 152.001 32.249 152.001 32.9451V36.4605H151.896ZM163.869 33.1191C163.869 34.1981 163.591 35.0335 163.034 35.66C162.477 36.2517 161.711 36.5649 160.737 36.5649C160.11 36.5649 159.588 36.4257 159.101 36.1473C158.614 35.8688 158.266 35.4512 158.022 34.9291C157.778 34.407 157.639 33.8153 157.639 33.1191C157.639 32.0401 157.918 31.2048 158.474 30.6131C159.031 30.0214 159.797 29.7081 160.806 29.7081C161.746 29.7081 162.512 30.0214 163.069 30.6479C163.591 31.2744 163.869 32.0749 163.869 33.1191ZM159.066 33.1191C159.066 34.6506 159.623 35.4163 160.772 35.4163C161.885 35.4163 162.442 34.6506 162.442 33.1191C162.442 31.6225 161.885 30.8567 160.772 30.8567C160.18 30.8567 159.762 31.0656 159.484 31.4484C159.205 31.8313 159.066 32.3882 159.066 33.1191ZM171.318 36.4605H169.891V32.3882C169.891 31.8661 169.787 31.4832 169.578 31.2396C169.369 30.996 169.056 30.8567 168.603 30.8567C168.011 30.8567 167.559 31.0308 167.315 31.3788C167.072 31.7269 166.898 32.3186 166.898 33.1539V36.4605H165.505V29.8473H166.619L166.828 30.7175H166.898C167.106 30.4042 167.385 30.1606 167.733 29.9866C168.081 29.8125 168.499 29.7429 168.951 29.7429C170.552 29.7429 171.318 30.5435 171.318 32.1794V36.4605ZM176.156 36.5649C175.112 36.5649 174.311 36.2517 173.754 35.66C173.163 35.0683 172.884 34.2329 172.884 33.1887C172.884 32.1098 173.163 31.2744 173.685 30.6479C174.207 30.0214 174.973 29.7081 175.912 29.7081C176.783 29.7081 177.479 29.9866 177.966 30.5087C178.488 31.0308 178.732 31.7617 178.732 32.7015V33.4672H174.311C174.346 34.0937 174.52 34.6158 174.833 34.9291C175.147 35.2771 175.634 35.4512 176.226 35.4512C176.609 35.4512 176.991 35.4163 177.305 35.3467C177.618 35.2771 178.001 35.1379 178.384 34.9639V36.1125C178.036 36.2865 177.688 36.3909 177.339 36.4605C176.991 36.5301 176.609 36.5649 176.156 36.5649ZM175.878 30.7871C175.425 30.7871 175.077 30.9263 174.799 31.2048C174.52 31.4832 174.381 31.9009 174.311 32.4578H177.305C177.305 31.9009 177.165 31.4832 176.922 31.2048C176.678 30.9263 176.33 30.7871 175.878 30.7871ZM179.08 29.8473H180.611L181.969 33.6064C182.178 34.1285 182.317 34.6506 182.386 35.1031H182.421C182.456 34.8943 182.526 34.6158 182.63 34.3025C182.734 33.9893 183.222 32.4926 184.161 29.8473H185.693L182.874 37.3307C182.352 38.6881 181.516 39.3843 180.298 39.3843C179.985 39.3843 179.671 39.3495 179.393 39.2798V38.166C179.602 38.2008 179.846 38.2357 180.124 38.2357C180.785 38.2357 181.273 37.8528 181.551 37.0522L181.795 36.4257L179.08 29.8473Z" fill="white"/>
</svg>
