<svg width="243" height="79" viewBox="0 0 243 79" fill="none" xmlns="http://www.w3.org/2000/svg">
<g clip-path="url(#clip0_243_2359)">
<path d="M101.569 32.492C100.951 29.919 99.3905 28.0358 96.3305 28.0358C91.8246 28.0358 89.941 32.2722 89.941 36.5695C89.941 40.8668 91.8246 45.1066 96.3305 45.1066C99.5967 45.1066 101.404 42.5032 101.686 39.2405H105.279C104.984 44.6062 101.423 48.3084 96.3305 48.3084C90.0298 48.3084 86.2627 42.9732 86.2627 36.5695C86.2627 30.1659 90.0298 24.834 96.3305 24.834C101.068 24.8644 104.807 27.6571 105.247 32.492H101.569ZM107.458 39.6463C107.458 34.6897 110.254 31.1092 115.141 31.1092C120.027 31.1092 122.821 34.6897 122.821 39.6463C122.821 44.6028 120.024 48.2138 115.141 48.2138C110.257 48.2138 107.458 44.6366 107.458 39.6463ZM119.466 39.6463C119.466 36.8535 118.141 33.9357 115.141 33.9357C112.141 33.9357 110.812 36.8535 110.812 39.6463C110.812 42.439 112.138 45.394 115.141 45.394C118.144 45.394 119.466 42.4728 119.466 39.6463ZM125.706 25.3682H129.061V28.7492H125.706V25.3682ZM125.706 31.5487H129.061V47.7776H125.706V31.5487ZM132.714 31.5487H135.885V33.9357L135.946 33.9966C136.427 33.1136 137.119 32.3818 137.951 31.8748C138.783 31.3679 139.725 31.1038 140.683 31.1092C143.981 31.1092 146.074 32.9924 146.074 36.6338V47.7911H142.722V37.5771C142.662 35.0345 141.72 33.9357 139.748 33.9357C137.512 33.9357 136.069 35.8189 136.069 38.2026V47.7742H132.714V31.5487ZM168.42 47.7742H166.063L165.505 45.1404C163.533 47.524 161.735 48.3084 159.163 48.3084C152.863 48.3084 149.096 42.9732 149.096 36.5695C149.096 30.1659 152.863 24.834 159.163 24.834C163.755 24.834 167.611 27.4374 168.169 32.492H164.592C164.237 29.5404 161.824 28.0358 159.176 28.0358C154.673 28.0358 152.787 32.2722 152.787 36.5695C152.787 40.8668 154.673 45.1066 159.176 45.1066C162.943 45.1708 165.004 42.7399 165.061 38.9565H159.471V35.9745H168.42V47.7742ZM174.571 40.5896C174.571 43.1321 175.865 45.3906 178.662 45.3906C180.606 45.3906 181.782 44.4811 182.372 42.6858H185.543C184.807 46.2325 181.982 48.207 178.655 48.207C173.899 48.207 171.21 44.6603 171.21 39.6699C171.21 35.0582 174.035 31.1024 178.567 31.1024C183.364 31.1024 186.31 35.7175 185.749 40.5693L174.571 40.5896ZM182.4 38.2228C182.283 35.9643 180.84 33.9256 178.573 33.9256C176.249 33.9256 174.66 35.8088 174.571 38.2228H182.4ZM198.591 36.9786C198.325 35.0007 196.971 33.9357 195.103 33.9357C193.369 33.9357 190.924 34.9094 190.924 39.8356C190.924 42.5404 192.043 45.3906 194.957 45.3906C196.901 45.3906 198.255 44.0112 198.579 41.6884H201.934C201.299 45.891 198.874 48.2138 194.957 48.2138C190.201 48.2138 187.569 44.6062 187.569 39.8356C187.569 34.9399 190.071 31.1092 195.075 31.1092C198.607 31.1092 201.61 32.9924 201.934 36.9786H198.591ZM204.772 25.3682H208.13V38.1079L214.208 31.5487H218.331L212.502 37.5128L218.892 47.7742H214.779L210.131 39.8964L208.13 41.969V47.7742H204.772V25.3682ZM219.786 39.6463C219.786 34.6897 222.583 31.1092 227.466 31.1092C232.35 31.1092 235.137 34.6897 235.137 39.6463C235.137 44.6028 232.34 48.2138 227.454 48.2138C222.567 48.2138 219.786 44.6366 219.786 39.6463ZM231.795 39.6463C231.795 36.8535 230.469 33.9357 227.466 33.9357C224.463 33.9357 223.141 36.8535 223.141 39.6463C223.141 42.439 224.467 45.394 227.466 45.394C230.466 45.394 231.795 42.4728 231.795 39.6463Z" fill="white"/>
<path d="M67.6394 39.2508C67.6657 45.5973 65.9264 51.8095 62.6415 57.102C59.3566 62.3945 54.6736 66.5295 49.1846 68.9843C43.6957 71.439 37.6473 72.1032 31.8044 70.8929C25.9614 69.6825 20.5862 66.652 16.3586 62.1845C12.1309 57.7169 9.24065 52.0131 8.05322 45.7942C6.86578 39.5753 7.43451 33.1206 9.68751 27.2463C11.9405 21.372 15.7766 16.3419 20.7106 12.7922C25.6447 9.24241 31.4552 7.33235 37.4073 7.30354C45.3895 7.26579 53.0589 10.6104 58.7285 16.6016C64.398 22.5928 67.6034 30.7399 67.6394 39.2508Z" fill="#8DC63F"/>
<path d="M65.3725 39.2576C65.3976 45.1261 63.7899 50.8707 60.753 55.765C57.716 60.6592 53.3861 64.4834 48.3108 66.7538C43.2354 69.0243 37.6426 69.639 32.2396 68.5204C26.8366 67.4017 21.8661 64.5999 17.9565 60.4692C14.0469 56.3385 11.374 51.0644 10.2756 45.3139C9.17722 39.5635 9.70278 33.5948 11.7858 28.1628C13.8689 22.7309 17.4158 18.0795 21.9782 14.7968C26.5405 11.5142 31.9133 9.74782 37.4172 9.72101C41.0717 9.70321 44.6937 10.4531 48.0764 11.9278C51.4591 13.4025 54.5362 15.5732 57.1321 18.316C59.728 21.0587 61.7919 24.3198 63.2057 27.913C64.6196 31.5061 65.3559 35.3611 65.3725 39.2576Z" fill="#F9E988"/>
<path d="M38.0518 11.6451C39.8209 11.3084 41.632 11.3084 43.4012 11.6451C45.1873 11.9469 46.9138 12.5639 48.5096 13.4709C50.0951 14.4007 51.4682 15.6618 52.8317 16.8519C54.1952 18.042 55.5556 19.2457 56.8493 20.571C58.1685 21.8741 59.3201 23.3578 60.274 24.9833C61.2575 26.5978 62.063 28.3279 62.6744 30.1393C63.864 33.7575 64.2027 37.6316 63.6606 41.4218H63.483C62.9607 37.8008 62.0872 34.2475 60.8764 30.8189C60.2962 29.1234 59.613 27.4699 58.8312 25.8691C58.0095 24.2729 57.1054 22.7265 56.1232 21.2371C55.1211 19.7296 53.8934 18.408 52.4892 17.3252C51.0781 16.2535 49.4546 15.557 47.8818 14.8977C46.309 14.2384 44.7362 13.5825 43.1031 13.0787C41.4701 12.5749 39.799 12.1996 38.0581 11.8345L38.0518 11.6451Z" fill="white"/>
<path d="M51.6535 28.7762C49.6336 28.1507 47.5313 27.2682 45.4194 26.3756C45.2989 25.8076 44.8264 25.101 43.8751 24.2388C42.4894 22.9574 39.8892 22.9912 37.641 23.5626C35.1613 22.9405 32.7101 22.7208 30.3477 23.3226C11.1158 28.9689 22.0239 42.7736 14.959 56.6358C15.9642 58.9079 26.7994 72.1885 42.4767 68.6148C42.4767 68.6148 37.1178 54.8777 49.215 48.2847C59.0292 42.919 66.1227 32.9856 51.6535 28.7762Z" fill="#8BC53F"/>
<path d="M54.0291 37.8073C54.031 38.0537 53.9642 38.2951 53.8373 38.501C53.7104 38.7068 53.529 38.8679 53.3161 38.9637C53.1032 39.0595 52.8685 39.0858 52.6416 39.0392C52.4147 38.9927 52.2059 38.8753 52.0416 38.702C51.8773 38.5288 51.765 38.3074 51.7188 38.066C51.6727 37.8246 51.6948 37.574 51.7823 37.346C51.8699 37.118 52.0189 36.9229 52.2106 36.7853C52.4023 36.6477 52.628 36.5739 52.859 36.5733C53.0119 36.5724 53.1633 36.6036 53.3049 36.6651C53.4464 36.7267 53.5751 36.8173 53.6838 36.9319C53.7924 37.0465 53.8789 37.1828 53.9381 37.333C53.9974 37.4832 54.0283 37.6444 54.0291 37.8073Z" fill="white"/>
<path d="M37.6436 23.5562C39.0451 23.6644 44.1155 25.4293 45.422 26.376C44.3407 22.995 40.6655 22.5555 37.6436 23.5562Z" fill="#009345"/>
<path d="M38.9776 32.0832C38.9776 33.22 38.6615 34.3313 38.0691 35.2765C37.4768 36.2217 36.6349 36.9584 35.6499 37.3934C34.6649 37.8284 33.581 37.9423 32.5353 37.7205C31.4896 37.4987 30.5291 36.9513 29.7752 36.1475C29.0213 35.3436 28.5079 34.3195 28.2999 33.2045C28.0919 32.0896 28.1986 30.9339 28.6066 29.8836C29.0146 28.8334 29.7056 27.9357 30.5921 27.3041C31.4786 26.6725 32.5208 26.3354 33.587 26.3354C35.0166 26.3354 36.3878 26.941 37.3987 28.0189C38.4097 29.0968 38.9776 30.5588 38.9776 32.0832Z" fill="white"/>
<path d="M37.3828 32.1341C37.3835 32.9327 37.1619 33.7136 36.7463 34.3779C36.3307 35.0422 35.7396 35.5601 35.0478 35.8662C34.356 36.1723 33.5946 36.2527 32.86 36.0973C32.1253 35.9419 31.4504 35.5577 30.9206 34.9933C30.3908 34.4288 30.0299 33.7095 29.8835 32.9263C29.7372 32.1432 29.812 31.3313 30.0984 30.5934C30.3849 29.8556 30.8702 29.2249 31.4929 28.7812C32.1156 28.3374 32.8477 28.1006 33.5967 28.1006C34.6 28.1015 35.5621 28.5266 36.2719 29.2828C36.9816 30.0389 37.3812 31.0643 37.3828 32.1341Z" fill="#58595B"/>
<path d="M58.3896 40.3361C54.0295 43.6123 49.0701 46.0838 42.0369 46.0838C38.7454 46.0838 38.0795 42.3647 35.9042 44.1837C34.7785 45.127 30.8307 47.2266 27.6755 47.0778C24.5204 46.9291 19.431 44.9512 18.0199 37.8003C17.4587 44.9512 17.1701 50.2188 14.6523 56.2573C19.6688 64.8214 31.6266 71.4246 42.4777 68.5845C41.3139 59.9021 48.4296 51.3954 52.4409 47.044C53.9566 45.3975 56.8802 42.7062 58.3896 40.3225V40.3361Z" fill="#8BC53F"/>
<path d="M58.219 40.5524C56.8299 41.8262 55.2801 42.8858 53.6148 43.7002C51.9548 44.5412 50.2243 45.2136 48.4461 45.7085C46.6703 46.1988 44.8121 46.5673 42.9317 46.3847C41.0514 46.2021 39.1266 45.5192 37.8867 44.018L37.947 43.9436C39.4817 45.0019 41.2353 45.3738 42.9857 45.4279C44.7628 45.4829 46.5401 45.3253 48.2844 44.9579C50.0465 44.5663 51.7705 44.0004 53.434 43.2674C55.1245 42.5791 56.7159 41.6413 58.1619 40.4814L58.219 40.5524Z" fill="#58595B"/>
</g>
<defs>
<clipPath id="clip0_243_2359">
<rect width="241.919" height="77.6926" fill="white" transform="translate(0.34082 0.54834)"/>
</clipPath>
</defs>
</svg>
