<svg width="193" height="64" viewBox="0 0 193 64" fill="none" xmlns="http://www.w3.org/2000/svg">
<path fill-rule="evenodd" clip-rule="evenodd" d="M27.2972 0.416598C21.5229 1.12629 15.168 4.09408 9.74853 8.67481C8.65174 9.57805 6.36138 11.8039 6.36138 11.9329C6.36138 11.9974 7.45817 13.1588 8.81303 14.5136L11.2647 16.9975L10.2324 18.1588C6.42589 22.4492 3.8452 26.8041 2.29679 31.4171C1.32903 34.3204 0.909668 36.7075 0.909668 39.385C0.909668 41.8044 1.23225 43.7722 1.9742 45.6754L2.26453 46.4496L9.4582 53.6433C15.4583 59.6434 16.8132 60.9338 17.5551 61.4176C19.1035 62.4499 20.91 63.1596 22.9101 63.579C24.2327 63.8693 27.2972 63.9661 28.7489 63.7725C34.4909 63.0628 40.4265 60.3531 45.6201 56.0305C46.975 54.9014 49.2653 52.7401 49.2653 52.611C49.2653 52.5465 48.1363 51.3852 46.7814 49.9981L44.2975 47.4819L45.0717 46.6755C46.975 44.6754 49.2976 41.4818 50.6525 38.9657C52.588 35.4495 53.8461 31.6429 54.2654 28.159C54.4267 26.6429 54.33 23.417 54.0719 22.1912C53.6203 20.1266 52.9106 18.4492 51.846 16.8362C51.2976 15.9975 50.2008 14.8685 44.1362 8.77158L37.0393 1.67469L36.2974 1.38436C35.2974 0.964994 33.2328 0.481116 31.9747 0.352081C30.7166 0.223047 28.7489 0.255305 27.2972 0.416598ZM33.3941 2.31986C33.9102 2.44889 34.749 2.64245 35.2006 2.80374C36.0393 3.09407 36.0716 3.09407 37.3942 4.41667C38.5555 5.57798 38.7168 5.73927 38.4264 5.70701C36.878 5.41669 34.3941 5.35217 32.4586 5.61024C26.2649 6.38444 19.8777 9.51353 14.0067 14.6749C13.426 15.191 12.9099 15.6427 12.8131 15.7072C12.7163 15.7717 12.2002 15.3523 10.684 13.8362L8.684 11.8362L9.97434 10.7071C15.3615 5.99734 21.2971 3.02955 27.1037 2.19082C28.6521 1.96501 32.1038 2.06179 33.3941 2.31986ZM41.8459 12.5781C44.6846 12.9975 47.1685 14.2233 49.0073 16.062C50.8138 17.8685 51.9751 20.1911 52.5235 23.0944C52.7493 24.3848 52.7493 27.288 52.5235 28.8042C51.7815 33.4817 49.6202 38.2882 46.2653 42.6754C45.4911 43.7077 43.6523 45.869 43.362 46.0948C43.2007 46.2238 43.0072 46.0625 41.3297 44.3851C40.2974 43.3528 39.4587 42.4818 39.4587 42.4496C39.4587 42.4173 39.7491 42.0625 40.1039 41.6754C45.9427 35.2237 48.6847 27.159 46.7492 22.1589C45.975 20.2234 44.362 18.7718 42.2652 18.1266C41.2007 17.804 39.3297 17.6427 37.9426 17.804C35.8135 17.9975 33.2006 18.8363 30.6844 20.0621C28.1682 21.2879 25.8778 22.8363 23.652 24.8364L22.652 25.7074L20.7487 23.8041L18.8455 21.9008L19.6519 21.1589C24.5875 16.5459 31.136 13.2555 36.749 12.5136C37.8781 12.4168 40.7813 12.4168 41.8459 12.5781ZM15.168 23.7073C14.4583 24.5138 13.555 25.6428 13.1034 26.2235C7.74849 33.3527 5.29684 41.0947 6.29686 47.7723L6.36138 48.1916L5.03877 46.9013C3.78068 45.6754 3.71617 45.5787 3.4581 44.8045C0.941927 37.5785 4.10327 27.6106 11.555 19.2556L12.426 18.2879L14.426 20.2879L16.4261 22.2879L15.168 23.7073ZM40.362 19.5782L40.62 19.6427L40.5555 20.9976C40.491 22.6105 40.2652 23.9331 39.9426 25.0622C38.9103 28.4493 37.0071 31.8365 34.2328 35.0301L33.1683 36.2559L31.136 34.2236L29.1037 32.1913L30.0392 31.1591C32.0392 28.9655 33.878 26.417 35.007 24.2557C35.6199 23.0944 36.4264 21.1266 36.6522 20.2234C36.7813 19.675 36.7813 19.675 37.2651 19.6105C37.5232 19.5782 37.8135 19.546 37.9103 19.5137C38.1684 19.5137 40.1362 19.5137 40.362 19.5782ZM34.5877 20.9976C34.1361 22.2557 33.136 24.1912 32.1683 25.6428C31.1037 27.2558 30.3618 28.2235 28.8779 29.901L27.8456 31.0945L25.8133 29.0623L23.781 27.03L24.4585 26.417C26.5553 24.546 29.0069 22.8686 31.265 21.7073C32.4909 21.0944 34.4909 20.2879 34.7812 20.2557C34.8135 20.2557 34.749 20.5782 34.5877 20.9976ZM65.4914 22.2234C65.3947 22.3202 65.3624 24.9977 65.3624 34.8043C65.3624 46.74 65.3624 47.2561 65.5559 47.4174C65.7172 47.5787 66.2334 47.5787 70.5883 47.5787C73.2335 47.5787 76.1045 47.5142 76.9432 47.4819C80.3304 47.2561 82.9434 46.1593 84.9434 44.1593C86.5241 42.5786 87.5241 40.385 88.0402 37.4818C88.266 36.0624 88.266 33.0946 88.0402 31.7075C87.2015 27.03 84.524 23.9977 80.2336 22.7718C78.1368 22.1912 77.9755 22.1589 71.5883 22.1266C66.8463 22.1266 65.5882 22.1266 65.4914 22.2234ZM182.945 22.6428C182.848 22.7396 182.816 23.546 182.816 25.6106V28.4493H181.59C180.784 28.4493 180.332 28.4816 180.235 28.5784C180.074 28.7397 180.074 32.0946 180.235 32.2881C180.332 32.3849 180.784 32.4171 181.59 32.4171H182.816L182.848 38.1592C182.881 43.7722 182.881 43.9335 183.106 44.5787C183.719 46.3529 184.977 47.3206 187.01 47.5787C188.397 47.74 190.365 47.6755 191.719 47.4174L192.01 47.3529L191.977 44.998L191.945 42.6431L190.655 42.5786C189.268 42.5141 189.042 42.4496 188.881 42.1593C188.816 42.0302 188.784 40.0947 188.784 37.2237V32.4817L190.429 32.4494L192.074 32.4171V30.4494V28.4816L190.429 28.4493L188.784 28.4171V25.6428C188.784 23.9331 188.752 22.8041 188.687 22.6751C188.59 22.4815 188.429 22.4815 185.848 22.4815C183.816 22.546 183.042 22.5783 182.945 22.6428ZM77.3626 28.0945C79.3304 28.6106 80.6207 29.9978 81.1369 32.0301C81.524 33.5785 81.524 36.1591 81.1046 37.7721C80.6852 39.3528 79.7175 40.6108 78.4271 41.2238C77.2981 41.7722 76.6207 41.8689 74.298 41.9334L72.2012 41.998V34.9011V27.8042L74.4593 27.8687C76.1045 27.9009 76.911 27.9655 77.3626 28.0945ZM97.0726 28.2235C93.8468 28.8042 91.3628 30.9333 90.2661 34.0301C88.8144 38.0947 89.5241 42.7399 91.9758 45.3529C93.2661 46.7077 94.4919 47.4174 96.3629 47.9013C99.9436 48.8045 103.782 47.869 106.331 45.4819C106.944 44.9335 108.524 42.9335 108.524 42.7399C108.524 42.5141 108.073 42.2238 106.234 41.2883C105.105 40.7076 104.17 40.2237 104.137 40.2237C104.105 40.2237 103.911 40.5141 103.718 40.8689C103.266 41.7399 102.331 42.7076 101.653 43.0625C99.6211 44.0625 97.2339 43.4819 96.2016 41.7399C95.9113 41.2238 95.621 40.3205 95.621 39.8366V39.4818H102.073C106.944 39.4818 108.524 39.4495 108.621 39.3528C108.783 39.1915 108.783 37.9011 108.589 36.6108C108.073 33.1591 106.621 30.6752 104.299 29.2881C103.524 28.8364 102.04 28.3203 101.073 28.159C100.105 27.9977 98.0404 28.03 97.0726 28.2235ZM118.267 28.0945C117.363 28.2235 116.621 28.3848 116.041 28.5784C112.783 29.6107 110.621 32.2881 109.944 36.0946C109.686 37.5463 109.783 39.8689 110.137 41.256C110.621 43.127 111.331 44.3528 112.621 45.5787C113.75 46.6432 115.073 47.3851 116.847 47.869C117.363 48.0303 117.879 48.0626 119.202 48.0626C120.718 48.0626 120.944 48.0303 121.783 47.7723C123.46 47.2561 124.751 46.4819 125.912 45.2561C126.686 44.4496 127.557 43.2561 127.557 42.998C127.557 42.9012 127.396 42.7399 127.234 42.6109C126.557 42.1915 123.428 40.6431 123.267 40.6431C123.17 40.6431 123.009 40.8689 122.847 41.1915C122.46 42.0302 121.944 42.5786 121.138 42.9657C120.525 43.2561 120.331 43.3206 119.654 43.2883C118.75 43.2883 118.17 43.0625 117.428 42.4173C115.492 40.7076 115.363 35.9656 117.202 33.8043C118.363 32.4494 120.525 32.4494 121.912 33.772C122.138 33.9978 122.46 34.4172 122.621 34.7075C122.783 34.9978 122.976 35.2559 123.073 35.2559C123.299 35.3204 127.267 33.0301 127.331 32.8043C127.363 32.6107 126.944 31.9655 126.331 31.1913C125.331 29.9655 123.363 28.7719 121.654 28.3848C120.783 28.159 118.912 28.03 118.267 28.0945ZM170.009 28.3203C168.945 28.5139 167.977 28.901 167.203 29.4816L166.59 29.9332L166.558 29.2881L166.525 28.6429L164.042 28.6106C161.848 28.5784 161.525 28.6106 161.364 28.7719C161.171 28.9332 161.171 29.4171 161.171 41.3528C161.171 50.8691 161.203 53.7724 161.3 53.8691C161.493 54.0627 166.913 54.0627 167.074 53.8691C167.171 53.7724 167.203 52.8046 167.203 50.1917V46.6432L168.203 47.1593C169.558 47.8368 170.396 47.9981 171.977 47.9335C173.816 47.8368 174.913 47.4819 176.106 46.5787C177.784 45.3206 178.88 43.3851 179.493 40.7076C179.816 39.2882 179.816 36.8043 179.493 35.2882C179.074 33.2881 178.397 31.9333 177.171 30.6429C175.364 28.6429 172.719 27.8364 170.009 28.3203ZM24.523 30.2236C26.2649 31.9655 26.3617 32.0946 26.2327 32.2881C26.1359 32.3849 25.7165 32.8688 25.2649 33.3849C23.4584 35.4495 21.781 37.9656 20.6519 40.2882C19.8455 41.9334 19.3616 43.2883 18.8777 45.127C18.2648 47.5464 18.2648 50.2239 18.9422 52.0949C20.2003 55.6434 23.523 57.3208 28.1682 56.7724C32.6522 56.224 37.8135 53.6433 42.233 49.74L43.1685 48.9013L45.0717 50.8046L46.975 52.7078L46.1685 53.4498C42.0394 57.2886 36.5232 60.4176 31.7489 61.5789C29.8134 62.0628 28.4585 62.2241 26.6198 62.2241C24.1681 62.2241 22.3617 61.9015 20.4584 61.0628C18.0067 59.9983 15.7486 57.9015 14.5873 55.5788C13.1357 52.7078 12.7163 49.1594 13.3615 45.3206C14.2647 39.9657 17.2648 34.2236 21.6842 29.2881C22.1358 28.7719 22.5552 28.3526 22.5875 28.3526C22.6197 28.3526 23.4907 29.1913 24.523 30.2236ZM139.299 28.4816C138.041 28.6752 136.46 29.2558 135.428 29.9332L135.106 30.159V29.4816C135.106 29.0945 135.041 28.7719 134.977 28.6751C134.88 28.5784 134.138 28.5461 132.235 28.5461C129.847 28.5461 129.589 28.5461 129.46 28.7397C129.299 28.901 129.299 29.7074 129.299 38.0947C129.299 46.8368 129.299 47.2561 129.493 47.4174C129.654 47.5787 130.009 47.5787 132.331 47.5787C134.396 47.5787 135.009 47.5464 135.106 47.4497C135.17 47.3529 135.235 45.4496 135.235 41.5463C135.267 36.1269 135.267 35.7398 135.46 35.3849C135.847 34.6107 136.525 34.2882 138.493 33.9656C139.235 33.8365 139.977 33.7075 140.138 33.6752L140.428 33.6107V31.0945C140.428 28.5784 140.396 28.288 140.073 28.3526C139.944 28.3848 139.622 28.4171 139.299 28.4816ZM141.944 28.7074C141.88 28.8042 141.848 28.9655 141.88 29.1268C141.912 29.2558 142.783 32.0946 143.815 35.3849C147.944 48.6755 147.719 47.9013 147.428 48.4174C147.17 48.9336 146.719 49.0303 145.106 49.0303C144.106 49.0303 143.59 49.0626 143.525 49.1594C143.428 49.2561 143.396 49.9013 143.396 51.482C143.396 53.0627 143.428 53.7078 143.525 53.8046C143.686 53.9659 147.783 53.9659 148.848 53.8369C150.622 53.5788 152.074 52.3207 152.912 50.3207C153.106 49.9013 154.751 44.9012 156.59 39.2237C159.396 30.6429 159.945 28.8687 159.816 28.7397C159.719 28.6106 159.235 28.5784 156.687 28.5784H153.687L153.59 29.03C153.525 29.2881 152.912 31.9655 152.203 35.0301C151.493 38.0947 150.912 40.6431 150.848 40.6754C150.816 40.7076 150.138 37.9979 149.396 34.6753L148.009 28.5784H145.009C142.525 28.5784 142.041 28.5784 141.944 28.7074ZM100.75 32.7397C101.718 33.1914 102.363 34.0623 102.557 35.1269L102.621 35.514H99.1694H95.7178L95.7823 35.1914C95.9113 34.6107 96.4597 33.6752 96.9113 33.2881C97.6855 32.6107 98.363 32.3849 99.4275 32.4494C99.9436 32.4817 100.331 32.5784 100.75 32.7397ZM171.945 32.901C172.848 33.3849 173.526 34.3849 173.848 35.7398C174.074 36.7398 174.074 39.1269 173.816 40.127C173.59 40.9979 173.138 41.9012 172.655 42.5141C171.88 43.4496 170.364 43.7077 169.138 43.0948C167.719 42.3851 167.042 40.8044 167.042 38.1592C167.042 35.7075 167.687 33.9656 168.88 33.0946C169.816 32.4494 170.945 32.3849 171.945 32.901ZM30.8457 38.1269C28.2005 40.6108 24.8133 42.8367 22.0068 43.9657C21.4262 44.1916 20.91 44.3851 20.8778 44.3851C20.8455 44.3851 20.9745 44.0303 21.1358 43.5786C22.3617 40.1915 24.4907 36.7398 27.0392 33.9978L27.6521 33.3526L29.6844 35.3527L31.7167 37.3527L30.8457 38.1269ZM34.9103 40.6431L36.878 42.6109L36.2651 43.1915C33.0393 46.2238 28.0714 48.9658 24.5552 49.7078C23.6843 49.9013 21.7487 50.0949 20.8132 50.0949H20.2003V48.611C20.2003 47.8045 20.2326 46.9335 20.2648 46.74L20.3294 46.3529L21.5874 45.9335C24.781 44.9012 28.8456 42.3528 31.8457 39.514C32.3296 39.0624 32.7812 38.6753 32.8457 38.6753C32.9102 38.6753 33.8457 39.5463 34.9103 40.6431Z" fill="white"/>
</svg>
