<svg width="285" height="55" viewBox="0 0 285 55" fill="none" xmlns="http://www.w3.org/2000/svg">
<g clip-path="url(#clip0_244_2406)">
<path d="M79.5308 38.5386C74.2873 38.5386 71.038 33.8326 71.038 27.3213C71.038 20.8747 73.7725 16.0718 79.4985 16.0718C83.2622 16.0718 85.7392 18.4894 86.1901 21.6805H94.9403C94.4894 17.7157 92.7202 14.2346 89.6322 11.9137C87.1228 9.97969 83.6484 8.78711 79.5308 8.78711C68.9791 8.78711 62.127 16.781 62.127 27.3213C62.127 37.9262 69.2043 45.6944 79.5954 45.6944C84.5811 45.6944 88.2163 44.3084 90.9188 41.6652C93.3312 39.3445 94.9403 36.1211 95.165 32.6077H86.4149C86.0293 36.0567 83.4553 38.5386 79.5308 38.5386Z" fill="white"/>
<path d="M111.315 18.876C103.208 18.876 97.7715 24.678 97.7715 32.3174C97.7715 39.9567 103.208 45.7588 111.315 45.7588C119.486 45.7588 124.826 39.9567 124.826 32.3174C124.826 24.678 119.486 18.876 111.315 18.876ZM111.283 39.9889C107.776 39.9889 105.942 36.9268 105.942 32.3174C105.942 27.708 107.776 24.5813 111.283 24.5813C114.789 24.5813 116.687 27.708 116.687 32.3174C116.655 36.9268 114.789 39.9889 111.283 39.9889Z" fill="white"/>
<path d="M136.273 16.1781C137.994 14.4536 137.994 11.6576 136.273 9.93305C134.551 8.20851 131.761 8.20851 130.04 9.93305C128.319 11.6576 128.319 14.4536 130.04 16.1781C131.761 17.9027 134.551 17.9027 136.273 16.1781Z" fill="white"/>
<path d="M126.146 25.2586H129.523V44.9532H137.566V19.5532H126.146V25.2586Z" fill="white"/>
<path d="M157.35 18.8115C153.844 18.8115 151.398 20.2942 149.533 23.0341H149.372V19.5529H141.619V44.9207H149.694V30.8991C149.694 27.7725 151.463 25.5483 154.133 25.5483C156.771 25.5483 158.09 27.3856 158.09 30.061V44.9207H166.164V28.4171C166.164 22.7763 162.883 18.8115 157.35 18.8115Z" fill="white"/>
<path d="M185.079 9.49609H169.992V44.9208H184.533C188.972 44.9208 192.543 43.7926 195.31 41.6974C199.267 38.6675 201.454 33.6713 201.454 27.4179C201.454 16.5874 194.859 9.49609 185.079 9.49609ZM183.89 37.5715H178.742V16.8454H183.986C189.487 16.8454 192.607 21.0034 192.607 27.4502C192.575 33.9291 189.616 37.5715 183.89 37.5715Z" fill="white"/>
<path d="M225.355 22.1637C223.168 20.1975 220.305 19.0049 216.702 19.0049C208.981 19.0049 203.705 24.8069 203.705 32.3818C203.705 40.0534 208.852 45.8554 217.217 45.8554C220.433 45.8554 223.007 45.0173 225.131 43.5346C227.35 41.9874 228.83 39.8277 229.377 37.5392H221.527C220.82 39.1186 219.436 40.0534 217.313 40.0534C214 40.0534 212.134 37.926 211.619 34.5092H229.827C229.859 29.3196 228.379 24.9358 225.355 22.1637ZM211.651 29.6742C212.198 26.6442 213.774 24.7102 216.831 24.7102C219.436 24.7102 221.335 26.6442 221.624 29.6742H211.651Z" fill="white"/>
<path d="M245.719 29.0622C242.502 28.482 239.639 28.2241 239.639 26.4513C239.639 24.8719 241.183 24.1305 243.145 24.1305C245.365 24.1305 246.909 24.8396 247.199 27.096H254.63C254.244 22.0998 250.384 18.9731 243.21 18.9731C237.226 18.9731 232.272 21.7452 232.272 27.096C232.272 33.0591 236.969 34.2196 241.376 34.961C244.754 35.5412 247.81 35.7991 247.81 38.0876C247.81 39.7315 246.266 40.6018 243.853 40.6018C241.183 40.6018 239.51 39.3769 239.188 36.8305H231.564C231.821 42.4392 236.454 45.8559 243.885 45.8559C250.512 45.8559 255.402 42.9871 255.402 37.443C255.434 30.964 250.191 29.8036 245.719 29.0622Z" fill="white"/>
<path d="M274.384 29.0941L283.295 19.553H273.998L266.47 28.1271V9.49609H258.524V44.9529H266.47V37.1524L268.915 34.5738L274.995 44.9529H284.325L274.384 29.0941Z" fill="white"/>
<path d="M26.6773 29.6744C28.0276 29.6744 29.1222 28.5776 29.1222 27.2246C29.1222 25.8716 28.0276 24.7749 26.6773 24.7749C25.3271 24.7749 24.2324 25.8716 24.2324 27.2246C24.2324 28.5776 25.3271 29.6744 26.6773 29.6744Z" fill="#F8BF1E"/>
<path d="M46.1715 29.6744C47.5217 29.6744 48.6163 28.5776 48.6163 27.2246C48.6163 25.8716 47.5217 24.7749 46.1715 24.7749C44.8211 24.7749 43.7266 25.8716 43.7266 27.2246C43.7266 28.5776 44.8211 29.6744 46.1715 29.6744Z" fill="#F8BF1E"/>
<path d="M46.1715 49.2398C47.5217 49.2398 48.6163 48.143 48.6163 46.79C48.6163 45.4371 47.5217 44.3403 46.1715 44.3403C44.8211 44.3403 43.7266 45.4371 43.7266 46.79C43.7266 48.143 44.8211 49.2398 46.1715 49.2398Z" fill="#F8BF1E"/>
<path d="M53.345 7.20707C53.0876 3.62915 50.2245 0.728132 46.6537 0.470264C44.3696 0.309096 42.3107 1.1794 40.8631 2.66215C39.7693 3.79031 38.2895 4.46722 36.7132 4.46722H36.1341C34.5257 4.46722 33.0137 3.79031 31.8877 2.62991C30.5688 1.2761 28.7351 0.470264 26.7085 0.470264C24.6817 0.470264 22.848 1.30834 21.5291 2.62991C20.4032 3.79031 18.8912 4.46722 17.2827 4.46722H16.7358C15.1595 4.46722 13.6475 3.85478 12.5537 2.72661C12.3286 2.50098 12.1033 2.27534 11.8782 2.08194C9.1438 -0.142174 5.12255 -0.0777069 2.48464 2.27534C-0.70016 5.07966 -0.828839 9.97917 2.13077 12.9446C2.16295 12.9768 2.19511 13.0091 2.22729 13.0413C3.38539 14.1373 3.99662 15.6845 3.99662 17.2639V17.8119C3.99662 19.4236 3.32106 20.9385 2.16294 22.0667C0.811815 23.3883 0.00757438 25.2256 0.00757438 27.2563C0.00757438 29.287 0.843988 31.1244 2.16294 32.446C3.32106 33.5741 3.99662 35.0891 3.99662 36.7008V37.4422C3.99662 39.0216 3.32106 40.5043 2.19511 41.6002C0.779649 42.9863 -0.0889344 44.9525 0.00757438 47.1122C0.168423 50.9157 3.25671 53.9779 7.02057 54.1069C9.20813 54.1714 11.1705 53.301 12.5537 51.8505C13.6475 50.7224 15.1273 50.0132 16.7036 50.0132H17.3149C18.8912 50.0132 20.371 50.6901 21.4648 51.8505C22.9124 53.3655 25.0034 54.2358 27.2875 54.0746C30.8583 53.8167 33.7536 50.9157 34.011 47.3056C34.3005 43.0186 30.9549 39.4728 26.7406 39.4728C24.746 39.4728 22.9124 40.2786 21.5934 41.6002C20.4675 42.7284 18.9555 43.4053 17.3792 43.4053H16.7036C15.1273 43.4053 13.5832 42.7929 12.4572 41.6325C12.4251 41.6002 12.4251 41.6002 12.3929 41.568C11.2348 40.4398 10.5592 38.9249 10.5592 37.3132V36.6685C10.5592 35.0569 11.2348 33.5419 12.3929 32.4137C13.744 31.0921 14.5483 29.2548 14.5483 27.2241C14.5483 25.1934 13.7119 23.3561 12.3929 22.0345C11.2348 20.9063 10.5592 19.3913 10.5592 17.7797V17.1995C10.5592 15.5878 11.2348 14.0728 12.3607 12.9446C12.3929 12.9124 12.3929 12.9124 12.4251 12.8802C12.4572 12.848 12.4572 12.848 12.4894 12.8157C13.6154 11.6875 15.1273 11.0106 16.7358 11.0106H17.3149C18.9234 11.0106 20.4353 11.6875 21.5613 12.848C22.8802 14.2017 24.7139 15.0076 26.7406 15.0076C28.7673 15.0076 30.601 14.1695 31.9199 12.848C33.0459 11.6875 34.5579 11.0106 36.1663 11.0106H36.681C38.2895 11.0106 39.8015 11.6875 40.9274 12.848C42.2464 14.2017 44.08 15.0076 46.1068 15.0076C50.2888 15.0398 53.6345 11.4941 53.345 7.20707Z" fill="#F8BF1E"/>
</g>
<defs>
<clipPath id="clip0_244_2406">
<rect width="284.323" height="53.8491" fill="white" transform="translate(0 0.451172)"/>
</clipPath>
</defs>
</svg>
